<?xml version="1.0" encoding="utf-8"?>
<!-- Generator: Adobe Illustrator 25.0.0, SVG Export Plug-In . SVG Version: 6.00 Build 0)  -->
<svg version="1.1" id="Layer_1" xmlns="http://www.w3.org/2000/svg" xmlns:xlink="http://www.w3.org/1999/xlink" x="0px" y="0px"
	 viewBox="0 0 636.4 333.8" style="enable-background:new 0 0 636.4 333.8;" xml:space="preserve">
<style type="text/css">
	.st0{opacity:0.1;}
</style>
<g>
	<g class="st0">
		<path d="M35.7,138.2c2.1,0,4.1,0.3,6,0.8c1.9,0.5,3.7,1.3,5.4,2.3s3.2,2.1,4.5,3.5s2.5,2.9,3.5,4.5s1.7,3.4,2.3,5.4
			c0.5,1.9,0.8,3.9,0.8,6c0,2.4-0.4,4.7-1.1,6.9c-0.7,2.2-1.8,4.3-3.2,6.2v5.1c0,0.4-0.1,0.7-0.4,1s-0.6,0.4-1,0.4
			c-0.3,0-0.6-0.1-0.7-0.2c-0.2-0.1-0.3-0.3-0.4-0.5s-0.2-0.4-0.2-0.7c0-0.3,0-0.5,0-0.8c0-0.2,0-0.4,0-0.6c0-0.2,0-0.4,0-0.5
			c-1,1-2.2,1.9-3.4,2.6c-1.2,0.8-2.5,1.4-3.8,1.9s-2.7,0.9-4.1,1.2c-1.4,0.3-2.8,0.4-4.3,0.4c-2.1,0-4.1-0.3-6-0.8
			c-1.9-0.5-3.7-1.3-5.4-2.3c-1.7-1-3.2-2.1-4.5-3.5c-1.4-1.4-2.5-2.9-3.5-4.6s-1.7-3.5-2.3-5.4c-0.5-1.9-0.8-3.9-0.8-6
			c0-2.1,0.3-4.1,0.8-6c0.5-1.9,1.3-3.7,2.3-5.4s2.1-3.2,3.5-4.5s2.9-2.5,4.5-3.5s3.4-1.7,5.4-2.3C31.6,138.5,33.6,138.2,35.7,138.2
			z M53.9,168c0.5-1.2,0.8-2.4,1.1-3.6c0.2-1.2,0.4-2.5,0.4-3.7c0-1.8-0.2-3.6-0.7-5.2c-0.5-1.7-1.1-3.2-2-4.7
			c-0.9-1.5-1.9-2.8-3.1-4s-2.5-2.2-4-3.1c-1.5-0.9-3-1.5-4.7-2c-1.7-0.5-3.4-0.7-5.2-0.7c-1.8,0-3.6,0.2-5.2,0.7
			c-1.7,0.5-3.2,1.1-4.7,2c-1.5,0.9-2.8,1.9-4,3.1s-2.2,2.5-3.1,4c-0.9,1.5-1.5,3-2,4.7c-0.5,1.7-0.7,3.4-0.7,5.2
			c0,1.8,0.2,3.6,0.7,5.2c0.5,1.7,1.1,3.2,2,4.7c0.9,1.5,1.9,2.8,3.1,4c1.2,1.2,2.5,2.2,4,3.1c1.5,0.9,3,1.5,4.7,2
			c1.7,0.5,3.4,0.7,5.2,0.7c1.5,0,3-0.2,4.4-0.5s2.8-0.8,4.2-1.5c1.3-0.6,2.6-1.4,3.7-2.4c1.2-0.9,2.2-2,3.1-3.2v-14.2
			c0,1.1-0.2,2-0.6,3c-0.4,0.9-1,1.7-1.7,2.4c-0.7,0.7-1.5,1.2-2.5,1.6c-0.9,0.4-1.9,0.6-3,0.6c-1.1,0-2.1-0.2-3-0.6
			c-0.9-0.4-1.8-1-2.5-1.7c-0.7-0.7-1.2-1.5-1.7-2.5c-0.4-0.9-0.6-1.9-0.6-3c0-1.1,0.2-2.1,0.6-3c0.4-0.9,1-1.8,1.7-2.5
			c0.7-0.7,1.5-1.2,2.5-1.7c0.9-0.4,1.9-0.6,3-0.6c1,0,1.9,0.2,2.8,0.5c0.9,0.4,1.7,0.9,2.4,1.5c0.7,0.6,1.3,1.4,1.7,2.2
			c0.4,0.9,0.7,1.8,0.8,2.8c0.2,0,0.4,0.1,0.6,0.1c0.2,0,0.3,0.1,0.5,0.2c0.5,0.2,0.9,0.6,1.2,1c0.3,0.5,0.5,1,0.5,1.5V168z
			 M27.9,152.3c-0.6,0-1.2,0.1-1.8,0.3c-0.6,0.2-1.1,0.5-1.6,0.8c-0.1,0.1-0.3,0.2-0.4,0.2c-0.1,0.1-0.3,0.1-0.4,0.1
			c-0.4,0-0.7-0.1-1-0.4c-0.3-0.3-0.4-0.6-0.4-1c0-0.2,0-0.4,0.1-0.6c0.1-0.2,0.2-0.4,0.4-0.5c0.7-0.5,1.5-1,2.4-1.2
			c0.9-0.3,1.8-0.4,2.7-0.4c0.9,0,1.8,0.1,2.7,0.4c0.9,0.3,1.7,0.7,2.4,1.2c0.2,0.1,0.3,0.3,0.4,0.5s0.1,0.4,0.1,0.6
			c0,0.4-0.1,0.7-0.4,1c-0.3,0.3-0.6,0.4-1,0.4c-0.2,0-0.3,0-0.4-0.1c-0.1-0.1-0.3-0.1-0.4-0.2c-0.5-0.4-1-0.6-1.6-0.8
			C29.2,152.4,28.6,152.3,27.9,152.3z M24.5,166.3c0.5,0,1,0.2,1.2,0.7c1,1.5,2.2,2.7,3.6,3.6c1.5,0.9,3.1,1.3,4.9,1.3h4.2
			c0.4,0,0.7,0.1,1,0.4c0.3,0.3,0.4,0.6,0.4,1s-0.1,0.7-0.4,1c-0.3,0.3-0.6,0.4-1,0.4h-4.2c-1.1,0-2.2-0.1-3.3-0.4s-2.1-0.7-3-1.3
			s-1.8-1.2-2.6-2c-0.8-0.8-1.5-1.7-2-2.6c-0.1-0.2-0.2-0.5-0.2-0.7c0-0.4,0.1-0.7,0.4-1C23.8,166.4,24.1,166.3,24.5,166.3z
			 M25.9,157.1c0-0.3,0.1-0.6,0.2-0.8c0.1-0.3,0.3-0.5,0.5-0.7c0.2-0.2,0.4-0.3,0.7-0.4c0.3-0.1,0.5-0.2,0.8-0.2
			c0.3,0,0.6,0.1,0.8,0.2c0.3,0.1,0.5,0.3,0.7,0.4c0.2,0.2,0.3,0.4,0.4,0.7c0.1,0.3,0.2,0.5,0.2,0.8v2.8c0,0.3-0.1,0.6-0.2,0.8
			c-0.1,0.3-0.3,0.5-0.4,0.7c-0.2,0.2-0.4,0.3-0.7,0.5c-0.3,0.1-0.5,0.2-0.8,0.2c-0.3,0-0.6-0.1-0.8-0.2c-0.3-0.1-0.5-0.3-0.7-0.4
			c-0.2-0.2-0.3-0.4-0.4-0.7c-0.1-0.3-0.2-0.5-0.2-0.8V157.1z M48.3,158.6c0-0.7-0.1-1.3-0.4-1.9c-0.3-0.6-0.6-1.1-1.1-1.6
			c-0.4-0.4-1-0.8-1.6-1.1c-0.6-0.3-1.2-0.4-1.9-0.4c-0.7,0-1.3,0.1-1.9,0.4c-0.6,0.3-1.1,0.6-1.6,1.1c-0.4,0.4-0.8,1-1.1,1.6
			c-0.3,0.6-0.4,1.2-0.4,1.9c0,0.7,0.1,1.3,0.4,1.9c0.3,0.6,0.6,1.1,1.1,1.6c0.4,0.4,1,0.8,1.6,1.1c0.6,0.3,1.2,0.4,1.9,0.4
			c0.7,0,1.3-0.1,1.9-0.4c0.6-0.3,1.1-0.6,1.6-1.1c0.4-0.4,0.8-1,1.1-1.6C48.2,159.9,48.3,159.2,48.3,158.6z"/>
	</g>
</g>
<g>
	<g class="st0">
		<path d="M284.1,185.2c2.1,0,4.1,0.3,6,0.8s3.7,1.3,5.4,2.3s3.2,2.1,4.5,3.5s2.5,2.9,3.5,4.5s1.7,3.4,2.3,5.4
			c0.5,1.9,0.8,3.9,0.8,6c0,2.4-0.4,4.7-1.1,6.9c-0.7,2.2-1.8,4.3-3.2,6.2v5.1c0,0.4-0.1,0.7-0.4,1s-0.6,0.4-1,0.4
			c-0.3,0-0.6-0.1-0.7-0.2c-0.2-0.1-0.3-0.3-0.4-0.5c-0.1-0.2-0.2-0.4-0.2-0.7c0-0.3,0-0.5,0-0.8c0-0.2,0-0.4,0-0.6
			c0-0.2,0-0.4,0-0.5c-1,1-2.2,1.9-3.4,2.6c-1.2,0.8-2.5,1.4-3.8,1.9c-1.3,0.5-2.7,0.9-4.1,1.2c-1.4,0.3-2.8,0.4-4.3,0.4
			c-2.1,0-4.1-0.3-6-0.8c-1.9-0.5-3.7-1.3-5.4-2.3c-1.7-1-3.2-2.1-4.5-3.5c-1.4-1.4-2.5-2.9-3.5-4.6s-1.7-3.5-2.3-5.4
			c-0.5-1.9-0.8-3.9-0.8-6c0-2.1,0.3-4.1,0.8-6c0.5-1.9,1.3-3.7,2.3-5.4s2.1-3.2,3.5-4.5s2.9-2.5,4.5-3.5s3.4-1.7,5.4-2.3
			S282.1,185.2,284.1,185.2z M302.4,214.9c0.5-1.2,0.8-2.4,1.1-3.6s0.4-2.5,0.4-3.7c0-1.8-0.2-3.6-0.7-5.2s-1.1-3.2-2-4.7
			c-0.9-1.5-1.9-2.8-3.1-4s-2.5-2.2-4-3.1c-1.5-0.9-3-1.5-4.7-2c-1.7-0.5-3.4-0.7-5.2-0.7c-1.8,0-3.6,0.2-5.2,0.7
			c-1.7,0.5-3.2,1.1-4.7,2c-1.5,0.9-2.8,1.9-4,3.1s-2.2,2.5-3.1,4c-0.9,1.5-1.5,3-2,4.7s-0.7,3.4-0.7,5.2s0.2,3.6,0.7,5.2
			s1.1,3.2,2,4.7c0.9,1.5,1.9,2.8,3.1,4c1.2,1.2,2.5,2.2,4,3.1c1.5,0.9,3,1.5,4.7,2c1.7,0.5,3.4,0.7,5.2,0.7c1.5,0,3-0.2,4.4-0.5
			s2.8-0.8,4.2-1.5c1.3-0.6,2.6-1.4,3.7-2.4c1.2-0.9,2.2-2,3.1-3.2v-14.2c0,1.1-0.2,2-0.6,3s-1,1.7-1.7,2.4
			c-0.7,0.7-1.5,1.2-2.5,1.6s-1.9,0.6-3,0.6c-1.1,0-2.1-0.2-3-0.6s-1.8-1-2.5-1.7c-0.7-0.7-1.2-1.5-1.7-2.5c-0.4-0.9-0.6-1.9-0.6-3
			s0.2-2.1,0.6-3c0.4-0.9,1-1.8,1.7-2.5c0.7-0.7,1.5-1.2,2.5-1.7s1.9-0.6,3-0.6c1,0,1.9,0.2,2.8,0.5s1.7,0.9,2.4,1.5
			c0.7,0.6,1.3,1.4,1.7,2.2c0.4,0.9,0.7,1.8,0.8,2.8c0.2,0,0.4,0.1,0.6,0.1s0.3,0.1,0.5,0.2c0.5,0.2,0.9,0.6,1.2,1
			c0.3,0.5,0.5,1,0.5,1.5V214.9z M276.4,199.2c-0.6,0-1.2,0.1-1.8,0.3c-0.6,0.2-1.1,0.5-1.6,0.8c-0.1,0.1-0.3,0.2-0.4,0.2
			s-0.3,0.1-0.4,0.1c-0.4,0-0.7-0.1-1-0.4s-0.4-0.6-0.4-1c0-0.2,0-0.4,0.1-0.6s0.2-0.4,0.4-0.5c0.7-0.5,1.5-1,2.4-1.2
			c0.9-0.3,1.8-0.4,2.7-0.4c0.9,0,1.8,0.1,2.7,0.4c0.9,0.3,1.7,0.7,2.4,1.2c0.2,0.1,0.3,0.3,0.4,0.5s0.1,0.4,0.1,0.6
			c0,0.4-0.1,0.7-0.4,1c-0.3,0.3-0.6,0.4-1,0.4c-0.2,0-0.3,0-0.4-0.1s-0.3-0.1-0.4-0.2c-0.5-0.4-1-0.6-1.6-0.8
			C277.6,199.3,277,199.2,276.4,199.2z M273,213.2c0.5,0,1,0.2,1.2,0.7c1,1.5,2.2,2.7,3.6,3.6c1.5,0.9,3.1,1.3,4.9,1.3h4.2
			c0.4,0,0.7,0.1,1,0.4c0.3,0.3,0.4,0.6,0.4,1s-0.1,0.7-0.4,1c-0.3,0.3-0.6,0.4-1,0.4h-4.2c-1.1,0-2.2-0.1-3.3-0.4s-2.1-0.7-3-1.3
			s-1.8-1.2-2.6-2c-0.8-0.8-1.5-1.7-2-2.6c-0.1-0.2-0.2-0.5-0.2-0.7c0-0.4,0.1-0.7,0.4-1S272.6,213.2,273,213.2z M274.3,204.1
			c0-0.3,0.1-0.6,0.2-0.8c0.1-0.3,0.3-0.5,0.5-0.7s0.4-0.3,0.7-0.4s0.5-0.2,0.8-0.2c0.3,0,0.6,0.1,0.8,0.2s0.5,0.3,0.7,0.4
			c0.2,0.2,0.3,0.4,0.4,0.7c0.1,0.3,0.2,0.5,0.2,0.8v2.8c0,0.3-0.1,0.6-0.2,0.8c-0.1,0.3-0.3,0.5-0.4,0.7c-0.2,0.2-0.4,0.3-0.7,0.5
			c-0.3,0.1-0.5,0.2-0.8,0.2c-0.3,0-0.6-0.1-0.8-0.2s-0.5-0.3-0.7-0.4c-0.2-0.2-0.3-0.4-0.4-0.7c-0.1-0.3-0.2-0.5-0.2-0.8V204.1z
			 M296.8,205.5c0-0.7-0.1-1.3-0.4-1.9c-0.3-0.6-0.6-1.1-1.1-1.6s-1-0.8-1.6-1.1c-0.6-0.3-1.2-0.4-1.9-0.4c-0.7,0-1.3,0.1-1.9,0.4
			c-0.6,0.3-1.1,0.6-1.6,1.1c-0.4,0.4-0.8,1-1.1,1.6c-0.3,0.6-0.4,1.2-0.4,1.9s0.1,1.3,0.4,1.9c0.3,0.6,0.6,1.1,1.1,1.6
			c0.4,0.4,1,0.8,1.6,1.1c0.6,0.3,1.2,0.4,1.9,0.4c0.7,0,1.3-0.1,1.9-0.4c0.6-0.3,1.1-0.6,1.6-1.1c0.4-0.4,0.8-1,1.1-1.6
			C296.6,206.8,296.8,206.2,296.8,205.5z"/>
	</g>
</g>
<g>
	<g class="st0">
		<path d="M241.8,287.1c2.1,0,4.1,0.3,6,0.8s3.7,1.3,5.4,2.3s3.2,2.1,4.5,3.5s2.5,2.9,3.5,4.5s1.7,3.4,2.3,5.4
			c0.5,1.9,0.8,3.9,0.8,6c0,2.4-0.4,4.7-1.1,6.9c-0.7,2.2-1.8,4.3-3.2,6.2v5.1c0,0.4-0.1,0.7-0.4,1s-0.6,0.4-1,0.4
			c-0.3,0-0.6-0.1-0.7-0.2c-0.2-0.1-0.3-0.3-0.4-0.5c-0.1-0.2-0.2-0.4-0.2-0.7c0-0.3,0-0.5,0-0.8c0-0.2,0-0.4,0-0.6
			c0-0.2,0-0.4,0-0.5c-1,1-2.2,1.9-3.4,2.6c-1.2,0.8-2.5,1.4-3.8,1.9c-1.3,0.5-2.7,0.9-4.1,1.2c-1.4,0.3-2.8,0.4-4.3,0.4
			c-2.1,0-4.1-0.3-6-0.8c-1.9-0.5-3.7-1.3-5.4-2.3c-1.7-1-3.2-2.1-4.5-3.5c-1.4-1.4-2.5-2.9-3.5-4.6s-1.7-3.5-2.3-5.4
			c-0.5-1.9-0.8-3.9-0.8-6c0-2.1,0.3-4.1,0.8-6c0.5-1.9,1.3-3.7,2.3-5.4s2.1-3.2,3.5-4.5s2.9-2.5,4.5-3.5s3.4-1.7,5.4-2.3
			S239.7,287.1,241.8,287.1z M260,316.9c0.5-1.2,0.8-2.4,1.1-3.6s0.4-2.5,0.4-3.7c0-1.8-0.2-3.6-0.7-5.2s-1.1-3.2-2-4.7
			c-0.9-1.5-1.9-2.8-3.1-4s-2.5-2.2-4-3.1c-1.5-0.9-3-1.5-4.7-2c-1.7-0.5-3.4-0.7-5.2-0.7c-1.8,0-3.6,0.2-5.2,0.7
			c-1.7,0.5-3.2,1.1-4.7,2c-1.5,0.9-2.8,1.9-4,3.1s-2.2,2.5-3.1,4c-0.9,1.5-1.5,3-2,4.7s-0.7,3.4-0.7,5.2s0.2,3.6,0.7,5.2
			s1.1,3.2,2,4.7c0.9,1.5,1.9,2.8,3.1,4c1.2,1.2,2.5,2.2,4,3.1c1.5,0.9,3,1.5,4.7,2c1.7,0.5,3.4,0.7,5.2,0.7c1.5,0,3-0.2,4.4-0.5
			s2.8-0.8,4.2-1.5c1.3-0.6,2.6-1.4,3.7-2.4c1.2-0.9,2.2-2,3.1-3.2v-14.2c0,1.1-0.2,2-0.6,3s-1,1.7-1.7,2.4
			c-0.7,0.7-1.5,1.2-2.5,1.6s-1.9,0.6-3,0.6c-1.1,0-2.1-0.2-3-0.6s-1.8-1-2.5-1.7c-0.7-0.7-1.2-1.5-1.7-2.5c-0.4-0.9-0.6-1.9-0.6-3
			s0.2-2.1,0.6-3c0.4-0.9,1-1.8,1.7-2.5c0.7-0.7,1.5-1.2,2.5-1.7s1.9-0.6,3-0.6c1,0,1.9,0.2,2.8,0.5s1.7,0.9,2.4,1.5
			c0.7,0.6,1.3,1.4,1.7,2.2c0.4,0.9,0.7,1.8,0.8,2.8c0.2,0,0.4,0.1,0.6,0.1s0.3,0.1,0.5,0.2c0.5,0.2,0.9,0.6,1.2,1
			c0.3,0.5,0.5,1,0.5,1.5V316.9z M234,301.2c-0.6,0-1.2,0.1-1.8,0.3c-0.6,0.2-1.1,0.5-1.6,0.8c-0.1,0.1-0.3,0.2-0.4,0.2
			s-0.3,0.1-0.4,0.1c-0.4,0-0.7-0.1-1-0.4s-0.4-0.6-0.4-1c0-0.2,0-0.4,0.1-0.6s0.2-0.4,0.4-0.5c0.7-0.5,1.5-1,2.4-1.2
			c0.9-0.3,1.8-0.4,2.7-0.4c0.9,0,1.8,0.1,2.7,0.4c0.9,0.3,1.7,0.7,2.4,1.2c0.2,0.1,0.3,0.3,0.4,0.5s0.1,0.4,0.1,0.6
			c0,0.4-0.1,0.7-0.4,1c-0.3,0.3-0.6,0.4-1,0.4c-0.2,0-0.3,0-0.4-0.1s-0.3-0.1-0.4-0.2c-0.5-0.4-1-0.6-1.6-0.8
			C235.3,301.3,234.7,301.2,234,301.2z M230.6,315.2c0.5,0,1,0.2,1.2,0.7c1,1.5,2.2,2.7,3.6,3.6c1.5,0.9,3.1,1.3,4.9,1.3h4.2
			c0.4,0,0.7,0.1,1,0.4c0.3,0.3,0.4,0.6,0.4,1s-0.1,0.7-0.4,1c-0.3,0.3-0.6,0.4-1,0.4h-4.2c-1.1,0-2.2-0.1-3.3-0.4s-2.1-0.7-3-1.3
			s-1.8-1.2-2.6-2c-0.8-0.8-1.5-1.7-2-2.6c-0.1-0.2-0.2-0.5-0.2-0.7c0-0.4,0.1-0.7,0.4-1S230.2,315.2,230.6,315.2z M232,306.1
			c0-0.3,0.1-0.6,0.2-0.8c0.1-0.3,0.3-0.5,0.5-0.7s0.4-0.3,0.7-0.4s0.5-0.2,0.8-0.2c0.3,0,0.6,0.1,0.8,0.2s0.5,0.3,0.7,0.4
			c0.2,0.2,0.3,0.4,0.4,0.7c0.1,0.3,0.2,0.5,0.2,0.8v2.8c0,0.3-0.1,0.6-0.2,0.8c-0.1,0.3-0.3,0.5-0.4,0.7c-0.2,0.2-0.4,0.3-0.7,0.5
			c-0.3,0.1-0.5,0.2-0.8,0.2c-0.3,0-0.6-0.1-0.8-0.2s-0.5-0.3-0.7-0.4c-0.2-0.2-0.3-0.4-0.4-0.7c-0.1-0.3-0.2-0.5-0.2-0.8V306.1z
			 M254.4,307.5c0-0.7-0.1-1.3-0.4-1.9c-0.3-0.6-0.6-1.1-1.1-1.6s-1-0.8-1.6-1.1c-0.6-0.3-1.2-0.4-1.9-0.4c-0.7,0-1.3,0.1-1.9,0.4
			c-0.6,0.3-1.1,0.6-1.6,1.1c-0.4,0.4-0.8,1-1.1,1.6c-0.3,0.6-0.4,1.2-0.4,1.9s0.1,1.3,0.4,1.9c0.3,0.6,0.6,1.1,1.1,1.6
			c0.4,0.4,1,0.8,1.6,1.1c0.6,0.3,1.2,0.4,1.9,0.4c0.7,0,1.3-0.1,1.9-0.4c0.6-0.3,1.1-0.6,1.6-1.1c0.4-0.4,0.8-1,1.1-1.6
			C254.3,308.8,254.4,308.1,254.4,307.5z"/>
	</g>
</g>
<g>
	<g class="st0">
		<path d="M75.3,248.3c2.1,0,4.1,0.3,6,0.8s3.7,1.3,5.4,2.3s3.2,2.1,4.5,3.5s2.5,2.9,3.5,4.5s1.7,3.4,2.3,5.4c0.5,1.9,0.8,3.9,0.8,6
			c0,2.4-0.4,4.7-1.1,6.9c-0.7,2.2-1.8,4.3-3.2,6.2v5.1c0,0.4-0.1,0.7-0.4,1s-0.6,0.4-1,0.4c-0.3,0-0.6-0.1-0.7-0.2
			c-0.2-0.1-0.3-0.3-0.4-0.5c-0.1-0.2-0.2-0.4-0.2-0.7c0-0.3,0-0.5,0-0.8c0-0.2,0-0.4,0-0.6c0-0.2,0-0.4,0-0.5c-1,1-2.2,1.9-3.4,2.6
			c-1.2,0.8-2.5,1.4-3.8,1.9c-1.3,0.5-2.7,0.9-4.1,1.2c-1.4,0.3-2.8,0.4-4.3,0.4c-2.1,0-4.1-0.3-6-0.8c-1.9-0.5-3.7-1.3-5.4-2.3
			c-1.7-1-3.2-2.1-4.5-3.5c-1.4-1.4-2.5-2.9-3.5-4.6s-1.7-3.5-2.3-5.4c-0.5-1.9-0.8-3.9-0.8-6c0-2.1,0.3-4.1,0.8-6
			c0.5-1.9,1.3-3.7,2.3-5.4s2.1-3.2,3.5-4.5s2.9-2.5,4.5-3.5s3.4-1.7,5.4-2.3S73.2,248.3,75.3,248.3z M93.5,278.1
			c0.5-1.2,0.8-2.4,1.1-3.6s0.4-2.5,0.4-3.7c0-1.8-0.2-3.6-0.7-5.2s-1.1-3.2-2-4.7c-0.9-1.5-1.9-2.8-3.1-4s-2.5-2.2-4-3.1
			c-1.5-0.9-3-1.5-4.7-2c-1.7-0.5-3.4-0.7-5.2-0.7c-1.8,0-3.6,0.2-5.2,0.7c-1.7,0.5-3.2,1.1-4.7,2c-1.5,0.9-2.8,1.9-4,3.1
			s-2.2,2.5-3.1,4c-0.9,1.5-1.5,3-2,4.7s-0.7,3.4-0.7,5.2s0.2,3.6,0.7,5.2s1.1,3.2,2,4.7c0.9,1.5,1.9,2.8,3.1,4
			c1.2,1.2,2.5,2.2,4,3.1c1.5,0.9,3,1.5,4.7,2c1.7,0.5,3.4,0.7,5.2,0.7c1.5,0,3-0.2,4.4-0.5s2.8-0.8,4.2-1.5
			c1.3-0.6,2.6-1.4,3.7-2.4c1.2-0.9,2.2-2,3.1-3.2v-14.2c0,1.1-0.2,2-0.6,3s-1,1.7-1.7,2.4c-0.7,0.7-1.5,1.2-2.5,1.6s-1.9,0.6-3,0.6
			c-1.1,0-2.1-0.2-3-0.6s-1.8-1-2.5-1.7c-0.7-0.7-1.2-1.5-1.7-2.5c-0.4-0.9-0.6-1.9-0.6-3s0.2-2.1,0.6-3c0.4-0.9,1-1.8,1.7-2.5
			c0.7-0.7,1.5-1.2,2.5-1.7s1.9-0.6,3-0.6c1,0,1.9,0.2,2.8,0.5s1.7,0.9,2.4,1.5c0.7,0.6,1.3,1.4,1.7,2.2c0.4,0.9,0.7,1.8,0.8,2.8
			c0.2,0,0.4,0.1,0.6,0.1s0.3,0.1,0.5,0.2c0.5,0.2,0.9,0.6,1.2,1c0.3,0.5,0.5,1,0.5,1.5V278.1z M67.5,262.4c-0.6,0-1.2,0.1-1.8,0.3
			c-0.6,0.2-1.1,0.5-1.6,0.8c-0.1,0.1-0.3,0.2-0.4,0.2s-0.3,0.1-0.4,0.1c-0.4,0-0.7-0.1-1-0.4s-0.4-0.6-0.4-1c0-0.2,0-0.4,0.1-0.6
			s0.2-0.4,0.4-0.5c0.7-0.5,1.5-1,2.4-1.2c0.9-0.3,1.8-0.4,2.7-0.4c0.9,0,1.8,0.1,2.7,0.4c0.9,0.3,1.7,0.7,2.4,1.2
			c0.2,0.1,0.3,0.3,0.4,0.5s0.1,0.4,0.1,0.6c0,0.4-0.1,0.7-0.4,1c-0.3,0.3-0.6,0.4-1,0.4c-0.2,0-0.3,0-0.4-0.1s-0.3-0.1-0.4-0.2
			c-0.5-0.4-1-0.6-1.6-0.8C68.8,262.5,68.2,262.4,67.5,262.4z M64.1,276.4c0.5,0,1,0.2,1.2,0.7c1,1.5,2.2,2.7,3.6,3.6
			c1.5,0.9,3.1,1.3,4.9,1.3h4.2c0.4,0,0.7,0.1,1,0.4c0.3,0.3,0.4,0.6,0.4,1s-0.1,0.7-0.4,1c-0.3,0.3-0.6,0.4-1,0.4h-4.2
			c-1.1,0-2.2-0.1-3.3-0.4s-2.1-0.7-3-1.3s-1.8-1.2-2.6-2c-0.8-0.8-1.5-1.7-2-2.6c-0.1-0.2-0.2-0.5-0.2-0.7c0-0.4,0.1-0.7,0.4-1
			S63.7,276.4,64.1,276.4z M65.5,267.3c0-0.3,0.1-0.6,0.2-0.8c0.1-0.3,0.3-0.5,0.5-0.7s0.4-0.3,0.7-0.4s0.5-0.2,0.8-0.2
			c0.3,0,0.6,0.1,0.8,0.2s0.5,0.3,0.7,0.4c0.2,0.2,0.3,0.4,0.4,0.7c0.1,0.3,0.2,0.5,0.2,0.8v2.8c0,0.3-0.1,0.6-0.2,0.8
			c-0.1,0.3-0.3,0.5-0.4,0.7c-0.2,0.2-0.4,0.3-0.7,0.5c-0.3,0.1-0.5,0.2-0.8,0.2c-0.3,0-0.6-0.1-0.8-0.2s-0.5-0.3-0.7-0.4
			c-0.2-0.2-0.3-0.4-0.4-0.7c-0.1-0.3-0.2-0.5-0.2-0.8V267.3z M87.9,268.7c0-0.7-0.1-1.3-0.4-1.9c-0.3-0.6-0.6-1.1-1.1-1.6
			s-1-0.8-1.6-1.1c-0.6-0.3-1.2-0.4-1.9-0.4c-0.7,0-1.3,0.1-1.9,0.4c-0.6,0.3-1.1,0.6-1.6,1.1c-0.4,0.4-0.8,1-1.1,1.6
			c-0.3,0.6-0.4,1.2-0.4,1.9s0.1,1.3,0.4,1.9c0.3,0.6,0.6,1.1,1.1,1.6c0.4,0.4,1,0.8,1.6,1.1c0.6,0.3,1.2,0.4,1.9,0.4
			c0.7,0,1.3-0.1,1.9-0.4c0.6-0.3,1.1-0.6,1.6-1.1c0.4-0.4,0.8-1,1.1-1.6C87.8,270,87.9,269.3,87.9,268.7z"/>
	</g>
</g>
<g>
	<g class="st0">
		<path d="M462,182.6c2.1,0,4.1,0.3,6,0.8s3.7,1.3,5.4,2.3s3.2,2.1,4.5,3.5s2.5,2.9,3.5,4.5s1.7,3.4,2.3,5.4s0.8,3.9,0.8,6
			c0,2.4-0.4,4.7-1.1,6.9s-1.8,4.3-3.2,6.2v5.1c0,0.4-0.1,0.7-0.4,1s-0.6,0.4-1,0.4c-0.3,0-0.6-0.1-0.7-0.2
			c-0.2-0.1-0.3-0.3-0.4-0.5c-0.1-0.2-0.2-0.4-0.2-0.7c0-0.3,0-0.5,0-0.8c0-0.2,0-0.4,0-0.6s0-0.4,0-0.5c-1,1-2.2,1.9-3.4,2.6
			s-2.5,1.4-3.8,1.9c-1.3,0.5-2.7,0.9-4.1,1.2s-2.8,0.4-4.3,0.4c-2.1,0-4.1-0.3-6-0.8c-1.9-0.5-3.7-1.3-5.4-2.3s-3.2-2.1-4.5-3.5
			s-2.5-2.9-3.5-4.6s-1.7-3.5-2.3-5.4s-0.8-3.9-0.8-6c0-2.1,0.3-4.1,0.8-6s1.3-3.7,2.3-5.4s2.1-3.2,3.5-4.5s2.9-2.5,4.5-3.5
			s3.4-1.7,5.4-2.3S460,182.6,462,182.6z M480.3,212.4c0.5-1.2,0.8-2.4,1.1-3.6s0.4-2.5,0.4-3.7c0-1.8-0.2-3.6-0.7-5.2
			s-1.1-3.2-2-4.7s-1.9-2.8-3.1-4s-2.5-2.2-4-3.1s-3-1.5-4.7-2s-3.4-0.7-5.2-0.7s-3.6,0.2-5.2,0.7s-3.2,1.1-4.7,2s-2.8,1.9-4,3.1
			s-2.2,2.5-3.1,4s-1.5,3-2,4.7s-0.7,3.4-0.7,5.2s0.2,3.6,0.7,5.2s1.1,3.2,2,4.7s1.9,2.8,3.1,4c1.2,1.2,2.5,2.2,4,3.1
			c1.5,0.9,3,1.5,4.7,2s3.4,0.7,5.2,0.7c1.5,0,3-0.2,4.4-0.5s2.8-0.8,4.2-1.5c1.3-0.6,2.6-1.4,3.7-2.4c1.2-0.9,2.2-2,3.1-3.2V203
			c0,1.1-0.2,2-0.6,3s-1,1.7-1.7,2.4s-1.5,1.2-2.5,1.6s-1.9,0.6-3,0.6c-1.1,0-2.1-0.2-3-0.6s-1.8-1-2.5-1.7s-1.2-1.5-1.7-2.5
			s-0.6-1.9-0.6-3s0.2-2.1,0.6-3s1-1.8,1.7-2.5s1.5-1.2,2.5-1.7s1.9-0.6,3-0.6c1,0,1.9,0.2,2.8,0.5s1.7,0.9,2.4,1.5s1.3,1.4,1.7,2.2
			s0.7,1.8,0.8,2.8c0.2,0,0.4,0.1,0.6,0.1s0.3,0.1,0.5,0.2c0.5,0.2,0.9,0.6,1.2,1s0.5,1,0.5,1.5V212.4z M454.3,196.7
			c-0.6,0-1.2,0.1-1.8,0.3s-1.1,0.5-1.6,0.8c-0.1,0.1-0.3,0.2-0.4,0.2s-0.3,0.1-0.4,0.1c-0.4,0-0.7-0.1-1-0.4s-0.4-0.6-0.4-1
			c0-0.2,0-0.4,0.1-0.6s0.2-0.4,0.4-0.5c0.7-0.5,1.5-1,2.4-1.2s1.8-0.4,2.7-0.4c0.9,0,1.8,0.1,2.7,0.4s1.7,0.7,2.4,1.2
			c0.2,0.1,0.3,0.3,0.4,0.5s0.1,0.4,0.1,0.6c0,0.4-0.1,0.7-0.4,1s-0.6,0.4-1,0.4c-0.2,0-0.3,0-0.4-0.1s-0.3-0.1-0.4-0.2
			c-0.5-0.4-1-0.6-1.6-0.8S454.9,196.7,454.3,196.7z M450.9,210.7c0.5,0,1,0.2,1.2,0.7c1,1.5,2.2,2.7,3.6,3.6s3.1,1.3,4.9,1.3h4.2
			c0.4,0,0.7,0.1,1,0.4s0.4,0.6,0.4,1s-0.1,0.7-0.4,1s-0.6,0.4-1,0.4h-4.2c-1.1,0-2.2-0.1-3.3-0.4s-2.1-0.7-3-1.3s-1.8-1.2-2.6-2
			s-1.5-1.7-2-2.6c-0.1-0.2-0.2-0.5-0.2-0.7c0-0.4,0.1-0.7,0.4-1S450.5,210.7,450.9,210.7z M452.2,201.6c0-0.3,0.1-0.6,0.2-0.8
			s0.3-0.5,0.5-0.7s0.4-0.3,0.7-0.4s0.5-0.2,0.8-0.2s0.6,0.1,0.8,0.2s0.5,0.3,0.7,0.4s0.3,0.4,0.4,0.7s0.2,0.5,0.2,0.8v2.8
			c0,0.3-0.1,0.6-0.2,0.8s-0.3,0.5-0.4,0.7s-0.4,0.3-0.7,0.5s-0.5,0.2-0.8,0.2c-0.3,0-0.6-0.1-0.8-0.2s-0.5-0.3-0.7-0.4
			s-0.3-0.4-0.4-0.7s-0.2-0.5-0.2-0.8V201.6z M474.7,203c0-0.7-0.1-1.3-0.4-1.9s-0.6-1.1-1.1-1.6s-1-0.8-1.6-1.1s-1.2-0.4-1.9-0.4
			s-1.3,0.1-1.9,0.4s-1.1,0.6-1.6,1.1s-0.8,1-1.1,1.6s-0.4,1.2-0.4,1.9s0.1,1.3,0.4,1.9s0.6,1.1,1.1,1.6s1,0.8,1.6,1.1
			s1.2,0.4,1.9,0.4s1.3-0.1,1.9-0.4s1.1-0.6,1.6-1.1s0.8-1,1.1-1.6S474.7,203.6,474.7,203z"/>
	</g>
</g>
<g>
	<g class="st0">
		<path d="M475.8,17.8c2.1,0,4.1,0.3,6,0.8c1.9,0.5,3.7,1.3,5.4,2.3s3.2,2.1,4.5,3.5s2.5,2.9,3.5,4.5s1.7,3.4,2.3,5.4s0.8,3.9,0.8,6
			c0,2.4-0.4,4.7-1.1,6.9c-0.7,2.2-1.8,4.3-3.2,6.2v5.1c0,0.4-0.1,0.7-0.4,1s-0.6,0.4-1,0.4c-0.3,0-0.6-0.1-0.7-0.2
			c-0.2-0.1-0.3-0.3-0.4-0.5c-0.1-0.2-0.2-0.4-0.2-0.7c0-0.3,0-0.5,0-0.8c0-0.2,0-0.4,0-0.6s0-0.4,0-0.5c-1,1-2.2,1.9-3.4,2.6
			s-2.5,1.4-3.8,1.9c-1.3,0.5-2.7,0.9-4.1,1.2s-2.8,0.4-4.3,0.4c-2.1,0-4.1-0.3-6-0.8c-1.9-0.5-3.7-1.3-5.4-2.3s-3.2-2.1-4.5-3.5
			s-2.5-2.9-3.5-4.6c-1-1.7-1.7-3.5-2.3-5.4s-0.8-3.9-0.8-6c0-2.1,0.3-4.1,0.8-6s1.3-3.7,2.3-5.4s2.1-3.2,3.5-4.5s2.9-2.5,4.5-3.5
			s3.4-1.7,5.4-2.3C471.7,18.1,473.7,17.8,475.8,17.8z M494.1,47.6c0.5-1.2,0.8-2.4,1.1-3.6c0.2-1.2,0.4-2.5,0.4-3.7
			c0-1.8-0.2-3.6-0.7-5.2c-0.5-1.7-1.1-3.2-2-4.7c-0.9-1.5-1.9-2.8-3.1-4s-2.5-2.2-4-3.1c-1.5-0.9-3-1.5-4.7-2s-3.4-0.7-5.2-0.7
			s-3.6,0.2-5.2,0.7s-3.2,1.1-4.7,2c-1.5,0.9-2.8,1.9-4,3.1s-2.2,2.5-3.1,4c-0.9,1.5-1.5,3-2,4.7c-0.5,1.7-0.7,3.4-0.7,5.2
			c0,1.8,0.2,3.6,0.7,5.2c0.5,1.7,1.1,3.2,2,4.7c0.9,1.5,1.9,2.8,3.1,4s2.5,2.2,4,3.1c1.5,0.9,3,1.5,4.7,2s3.4,0.7,5.2,0.7
			c1.5,0,3-0.2,4.4-0.5s2.8-0.8,4.2-1.5c1.3-0.6,2.6-1.4,3.7-2.4c1.2-0.9,2.2-2,3.1-3.2V38.2c0,1.1-0.2,2-0.6,3
			c-0.4,0.9-1,1.7-1.7,2.4c-0.7,0.7-1.5,1.2-2.5,1.6c-0.9,0.4-1.9,0.6-3,0.6c-1.1,0-2.1-0.2-3-0.6c-0.9-0.4-1.8-1-2.5-1.7
			s-1.2-1.5-1.7-2.5s-0.6-1.9-0.6-3c0-1.1,0.2-2.1,0.6-3s1-1.8,1.7-2.5c0.7-0.7,1.5-1.2,2.5-1.7c0.9-0.4,1.9-0.6,3-0.6
			c1,0,1.9,0.2,2.8,0.5c0.9,0.4,1.7,0.9,2.4,1.5c0.7,0.6,1.3,1.4,1.7,2.2c0.4,0.9,0.7,1.8,0.8,2.8c0.2,0,0.4,0.1,0.6,0.1
			c0.2,0,0.3,0.1,0.5,0.2c0.5,0.2,0.9,0.6,1.2,1s0.5,1,0.5,1.5V47.6z M468.1,31.9c-0.6,0-1.2,0.1-1.8,0.3c-0.6,0.2-1.1,0.5-1.6,0.8
			c-0.1,0.1-0.3,0.2-0.4,0.2c-0.1,0.1-0.3,0.1-0.4,0.1c-0.4,0-0.7-0.1-1-0.4c-0.3-0.3-0.4-0.6-0.4-1c0-0.2,0-0.4,0.1-0.6
			c0.1-0.2,0.2-0.4,0.4-0.5c0.7-0.5,1.5-1,2.4-1.2c0.9-0.3,1.8-0.4,2.7-0.4c0.9,0,1.8,0.1,2.7,0.4c0.9,0.3,1.7,0.7,2.4,1.2
			c0.2,0.1,0.3,0.3,0.4,0.5s0.1,0.4,0.1,0.6c0,0.4-0.1,0.7-0.4,1s-0.6,0.4-1,0.4c-0.2,0-0.3,0-0.4-0.1c-0.1-0.1-0.3-0.1-0.4-0.2
			c-0.5-0.4-1-0.6-1.6-0.8C469.3,32,468.7,31.9,468.1,31.9z M464.7,45.9c0.5,0,1,0.2,1.2,0.7c1,1.5,2.2,2.7,3.6,3.6s3.1,1.3,4.9,1.3
			h4.2c0.4,0,0.7,0.1,1,0.4s0.4,0.6,0.4,1s-0.1,0.7-0.4,1s-0.6,0.4-1,0.4h-4.2c-1.1,0-2.2-0.1-3.3-0.4s-2.1-0.7-3-1.3
			s-1.8-1.2-2.6-2s-1.5-1.7-2-2.6c-0.1-0.2-0.2-0.5-0.2-0.7c0-0.4,0.1-0.7,0.4-1C464,46,464.3,45.9,464.7,45.9z M466,36.8
			c0-0.3,0.1-0.6,0.2-0.8c0.1-0.3,0.3-0.5,0.5-0.7c0.2-0.2,0.4-0.3,0.7-0.4c0.3-0.1,0.5-0.2,0.8-0.2s0.6,0.1,0.8,0.2
			c0.3,0.1,0.5,0.3,0.7,0.4c0.2,0.2,0.3,0.4,0.4,0.7s0.2,0.5,0.2,0.8v2.8c0,0.3-0.1,0.6-0.2,0.8s-0.3,0.5-0.4,0.7s-0.4,0.3-0.7,0.5
			c-0.3,0.1-0.5,0.2-0.8,0.2c-0.3,0-0.6-0.1-0.8-0.2c-0.3-0.1-0.5-0.3-0.7-0.4c-0.2-0.2-0.3-0.4-0.4-0.7s-0.2-0.5-0.2-0.8V36.8z
			 M488.4,38.2c0-0.7-0.1-1.3-0.4-1.9c-0.3-0.6-0.6-1.1-1.1-1.6c-0.4-0.4-1-0.8-1.6-1.1c-0.6-0.3-1.2-0.4-1.9-0.4s-1.3,0.1-1.9,0.4
			c-0.6,0.3-1.1,0.6-1.6,1.1c-0.4,0.4-0.8,1-1.1,1.6c-0.3,0.6-0.4,1.2-0.4,1.9c0,0.7,0.1,1.3,0.4,1.9c0.3,0.6,0.6,1.1,1.1,1.6
			s1,0.8,1.6,1.1c0.6,0.3,1.2,0.4,1.9,0.4s1.3-0.1,1.9-0.4c0.6-0.3,1.1-0.6,1.6-1.1c0.4-0.4,0.8-1,1.1-1.6
			C488.3,39.5,488.4,38.8,488.4,38.2z"/>
	</g>
</g>
<g>
	<g class="st0">
		<path d="M623.4,64.3c2.1,0,4.1,0.3,6,0.8c1.9,0.5,3.7,1.3,5.4,2.3s3.2,2.1,4.5,3.5s2.5,2.9,3.5,4.5s1.7,3.4,2.3,5.4
			c0.5,1.9,0.8,3.9,0.8,6c0,2.4-0.4,4.7-1.1,6.9c-0.7,2.2-1.8,4.3-3.2,6.2v5.1c0,0.4-0.1,0.7-0.4,1s-0.6,0.4-1,0.4
			c-0.3,0-0.6-0.1-0.7-0.2c-0.2-0.1-0.3-0.3-0.4-0.5c-0.1-0.2-0.2-0.4-0.2-0.7c0-0.3,0-0.5,0-0.8c0-0.2,0-0.4,0-0.6
			c0-0.2,0-0.4,0-0.5c-1,1-2.2,1.9-3.4,2.6c-1.2,0.8-2.5,1.4-3.8,1.9c-1.3,0.5-2.7,0.9-4.1,1.2c-1.4,0.3-2.8,0.4-4.3,0.4
			c-2.1,0-4.1-0.3-6-0.8c-1.9-0.5-3.7-1.3-5.4-2.3c-1.7-1-3.2-2.1-4.5-3.5c-1.4-1.4-2.5-2.9-3.5-4.6c-1-1.7-1.7-3.5-2.3-5.4
			c-0.5-1.9-0.8-3.9-0.8-6c0-2.1,0.3-4.1,0.8-6c0.5-1.9,1.3-3.7,2.3-5.4s2.1-3.2,3.5-4.5s2.9-2.5,4.5-3.5s3.4-1.7,5.4-2.3
			C619.3,64.5,621.3,64.3,623.4,64.3z M641.6,94c0.5-1.2,0.8-2.4,1.1-3.6c0.2-1.2,0.4-2.5,0.4-3.7c0-1.8-0.2-3.6-0.7-5.2
			c-0.5-1.7-1.1-3.2-2-4.7c-0.9-1.5-1.9-2.8-3.1-4s-2.5-2.2-4-3.1c-1.5-0.9-3-1.5-4.7-2c-1.7-0.5-3.4-0.7-5.2-0.7
			c-1.8,0-3.6,0.2-5.2,0.7c-1.7,0.5-3.2,1.1-4.7,2c-1.5,0.9-2.8,1.9-4,3.1s-2.2,2.5-3.1,4c-0.9,1.5-1.5,3-2,4.7
			c-0.5,1.7-0.7,3.4-0.7,5.2c0,1.8,0.2,3.6,0.7,5.2c0.5,1.7,1.1,3.2,2,4.7c0.9,1.5,1.9,2.8,3.1,4c1.2,1.2,2.5,2.2,4,3.1
			c1.5,0.9,3,1.5,4.7,2c1.7,0.5,3.4,0.7,5.2,0.7c1.5,0,3-0.2,4.4-0.5s2.8-0.8,4.2-1.5c1.3-0.6,2.6-1.4,3.7-2.4
			c1.2-0.9,2.2-2,3.1-3.2V84.7c0,1.1-0.2,2-0.6,3c-0.4,0.9-1,1.7-1.7,2.4c-0.7,0.7-1.5,1.2-2.5,1.6c-0.9,0.4-1.9,0.6-3,0.6
			c-1.1,0-2.1-0.2-3-0.6c-0.9-0.4-1.8-1-2.5-1.7c-0.7-0.7-1.2-1.5-1.7-2.5c-0.4-0.9-0.6-1.9-0.6-3c0-1.1,0.2-2.1,0.6-3
			c0.4-0.9,1-1.8,1.7-2.5c0.7-0.7,1.5-1.2,2.5-1.7c0.9-0.4,1.9-0.6,3-0.6c1,0,1.9,0.2,2.8,0.5c0.9,0.4,1.7,0.9,2.4,1.5
			c0.7,0.6,1.3,1.4,1.7,2.2c0.4,0.9,0.7,1.8,0.8,2.8c0.2,0,0.4,0.1,0.6,0.1c0.2,0,0.3,0.1,0.5,0.2c0.5,0.2,0.9,0.6,1.2,1
			c0.3,0.5,0.5,1,0.5,1.5V94z M615.6,78.3c-0.6,0-1.2,0.1-1.8,0.3c-0.6,0.2-1.1,0.5-1.6,0.8c-0.1,0.1-0.3,0.2-0.4,0.2
			c-0.1,0.1-0.3,0.1-0.4,0.1c-0.4,0-0.7-0.1-1-0.4c-0.3-0.3-0.4-0.6-0.4-1c0-0.2,0-0.4,0.1-0.6c0.1-0.2,0.2-0.4,0.4-0.5
			c0.7-0.5,1.5-1,2.4-1.2c0.9-0.3,1.8-0.4,2.7-0.4c0.9,0,1.8,0.1,2.7,0.4c0.9,0.3,1.7,0.7,2.4,1.2c0.2,0.1,0.3,0.3,0.4,0.5
			s0.1,0.4,0.1,0.6c0,0.4-0.1,0.7-0.4,1c-0.3,0.3-0.6,0.4-1,0.4c-0.2,0-0.3,0-0.4-0.1c-0.1-0.1-0.3-0.1-0.4-0.2
			c-0.5-0.4-1-0.6-1.6-0.8C616.9,78.4,616.3,78.3,615.6,78.3z M612.2,92.4c0.5,0,1,0.2,1.2,0.7c1,1.5,2.2,2.7,3.6,3.6
			c1.5,0.9,3.1,1.3,4.9,1.3h4.2c0.4,0,0.7,0.1,1,0.4c0.3,0.3,0.4,0.6,0.4,1s-0.1,0.7-0.4,1c-0.3,0.3-0.6,0.4-1,0.4H622
			c-1.1,0-2.2-0.1-3.3-0.4s-2.1-0.7-3-1.3s-1.8-1.2-2.6-2c-0.8-0.8-1.5-1.7-2-2.6c-0.1-0.2-0.2-0.5-0.2-0.7c0-0.4,0.1-0.7,0.4-1
			C611.5,92.5,611.8,92.4,612.2,92.4z M613.5,83.2c0-0.3,0.1-0.6,0.2-0.8c0.1-0.3,0.3-0.5,0.5-0.7c0.2-0.2,0.4-0.3,0.7-0.4
			c0.3-0.1,0.5-0.2,0.8-0.2c0.3,0,0.6,0.1,0.8,0.2c0.3,0.1,0.5,0.3,0.7,0.4c0.2,0.2,0.3,0.4,0.4,0.7c0.1,0.3,0.2,0.5,0.2,0.8V86
			c0,0.3-0.1,0.6-0.2,0.8c-0.1,0.3-0.3,0.5-0.4,0.7c-0.2,0.2-0.4,0.3-0.7,0.5c-0.3,0.1-0.5,0.2-0.8,0.2c-0.3,0-0.6-0.1-0.8-0.2
			c-0.3-0.1-0.5-0.3-0.7-0.4c-0.2-0.2-0.3-0.4-0.4-0.7c-0.1-0.3-0.2-0.5-0.2-0.8V83.2z M636,84.6c0-0.7-0.1-1.3-0.4-1.9
			c-0.3-0.6-0.6-1.1-1.1-1.6c-0.4-0.4-1-0.8-1.6-1.1c-0.6-0.3-1.2-0.4-1.9-0.4c-0.7,0-1.3,0.1-1.9,0.4c-0.6,0.3-1.1,0.6-1.6,1.1
			c-0.4,0.4-0.8,1-1.1,1.6c-0.3,0.6-0.4,1.2-0.4,1.9c0,0.7,0.1,1.3,0.4,1.9c0.3,0.6,0.6,1.1,1.1,1.6c0.4,0.4,1,0.8,1.6,1.1
			c0.6,0.3,1.2,0.4,1.9,0.4c0.7,0,1.3-0.1,1.9-0.4c0.6-0.3,1.1-0.6,1.6-1.1c0.4-0.4,0.8-1,1.1-1.6C635.9,85.9,636,85.3,636,84.6z"/>
	</g>
</g>
<g>
	<g class="st0">
		<path d="M623.7,259.8c2.1,0,4.1,0.3,6,0.8s3.7,1.3,5.4,2.3s3.2,2.1,4.5,3.5s2.5,2.9,3.5,4.5s1.7,3.4,2.3,5.4
			c0.5,1.9,0.8,3.9,0.8,6c0,2.4-0.4,4.7-1.1,6.9c-0.7,2.2-1.8,4.3-3.2,6.2v5.1c0,0.4-0.1,0.7-0.4,1s-0.6,0.4-1,0.4
			c-0.3,0-0.6-0.1-0.7-0.2c-0.2-0.1-0.3-0.3-0.4-0.5c-0.1-0.2-0.2-0.4-0.2-0.7c0-0.3,0-0.5,0-0.8c0-0.2,0-0.4,0-0.6
			c0-0.2,0-0.4,0-0.5c-1,1-2.2,1.9-3.4,2.6c-1.2,0.8-2.5,1.4-3.8,1.9c-1.3,0.5-2.7,0.9-4.1,1.2c-1.4,0.3-2.8,0.4-4.3,0.4
			c-2.1,0-4.1-0.3-6-0.8c-1.9-0.5-3.7-1.3-5.4-2.3c-1.7-1-3.2-2.1-4.5-3.5c-1.4-1.4-2.5-2.9-3.5-4.6s-1.7-3.5-2.3-5.4
			c-0.5-1.9-0.8-3.9-0.8-6c0-2.1,0.3-4.1,0.8-6c0.5-1.9,1.3-3.7,2.3-5.4s2.1-3.2,3.5-4.5s2.9-2.5,4.5-3.5s3.4-1.7,5.4-2.3
			S621.6,259.8,623.7,259.8z M641.9,289.6c0.5-1.2,0.8-2.4,1.1-3.6s0.4-2.5,0.4-3.7c0-1.8-0.2-3.6-0.7-5.2s-1.1-3.2-2-4.7
			c-0.9-1.5-1.9-2.8-3.1-4s-2.5-2.2-4-3.1c-1.5-0.9-3-1.5-4.7-2c-1.7-0.5-3.4-0.7-5.2-0.7c-1.8,0-3.6,0.2-5.2,0.7
			c-1.7,0.5-3.2,1.1-4.7,2c-1.5,0.9-2.8,1.9-4,3.1s-2.2,2.5-3.1,4c-0.9,1.5-1.5,3-2,4.7s-0.7,3.4-0.7,5.2s0.2,3.6,0.7,5.2
			s1.1,3.2,2,4.7c0.9,1.5,1.9,2.8,3.1,4c1.2,1.2,2.5,2.2,4,3.1c1.5,0.9,3,1.5,4.7,2c1.7,0.5,3.4,0.7,5.2,0.7c1.5,0,3-0.2,4.4-0.5
			s2.8-0.8,4.2-1.5c1.3-0.6,2.6-1.4,3.7-2.4c1.2-0.9,2.2-2,3.1-3.2v-14.2c0,1.1-0.2,2-0.6,3s-1,1.7-1.7,2.4
			c-0.7,0.7-1.5,1.2-2.5,1.6s-1.9,0.6-3,0.6c-1.1,0-2.1-0.2-3-0.6s-1.8-1-2.5-1.7c-0.7-0.7-1.2-1.5-1.7-2.5c-0.4-0.9-0.6-1.9-0.6-3
			s0.2-2.1,0.6-3c0.4-0.9,1-1.8,1.7-2.5c0.7-0.7,1.5-1.2,2.5-1.7s1.9-0.6,3-0.6c1,0,1.9,0.2,2.8,0.5s1.7,0.9,2.4,1.5
			c0.7,0.6,1.3,1.4,1.7,2.2c0.4,0.9,0.7,1.8,0.8,2.8c0.2,0,0.4,0.1,0.6,0.1s0.3,0.1,0.5,0.2c0.5,0.2,0.9,0.6,1.2,1
			c0.3,0.5,0.5,1,0.5,1.5V289.6z M616,273.9c-0.6,0-1.2,0.1-1.8,0.3c-0.6,0.2-1.1,0.5-1.6,0.8c-0.1,0.1-0.3,0.2-0.4,0.2
			s-0.3,0.1-0.4,0.1c-0.4,0-0.7-0.1-1-0.4s-0.4-0.6-0.4-1c0-0.2,0-0.4,0.1-0.6s0.2-0.4,0.4-0.5c0.7-0.5,1.5-1,2.4-1.2
			c0.9-0.3,1.8-0.4,2.7-0.4c0.9,0,1.8,0.1,2.7,0.4c0.9,0.3,1.7,0.7,2.4,1.2c0.2,0.1,0.3,0.3,0.4,0.5s0.1,0.4,0.1,0.6
			c0,0.4-0.1,0.7-0.4,1c-0.3,0.3-0.6,0.4-1,0.4c-0.2,0-0.3,0-0.4-0.1s-0.3-0.1-0.4-0.2c-0.5-0.4-1-0.6-1.6-0.8
			C617.2,273.9,616.6,273.9,616,273.9z M612.5,287.9c0.5,0,1,0.2,1.2,0.7c1,1.5,2.2,2.7,3.6,3.6c1.5,0.9,3.1,1.3,4.9,1.3h4.2
			c0.4,0,0.7,0.1,1,0.4c0.3,0.3,0.4,0.6,0.4,1s-0.1,0.7-0.4,1c-0.3,0.3-0.6,0.4-1,0.4h-4.2c-1.1,0-2.2-0.1-3.3-0.4s-2.1-0.7-3-1.3
			s-1.8-1.2-2.6-2c-0.8-0.8-1.5-1.7-2-2.6c-0.1-0.2-0.2-0.5-0.2-0.7c0-0.4,0.1-0.7,0.4-1S612.2,287.9,612.5,287.9z M613.9,278.7
			c0-0.3,0.1-0.6,0.2-0.8c0.1-0.3,0.3-0.5,0.5-0.7s0.4-0.3,0.7-0.4s0.5-0.2,0.8-0.2c0.3,0,0.6,0.1,0.8,0.2s0.5,0.3,0.7,0.4
			c0.2,0.2,0.3,0.4,0.4,0.7c0.1,0.3,0.2,0.5,0.2,0.8v2.8c0,0.3-0.1,0.6-0.2,0.8c-0.1,0.3-0.3,0.5-0.4,0.7c-0.2,0.2-0.4,0.3-0.7,0.5
			c-0.3,0.1-0.5,0.2-0.8,0.2c-0.3,0-0.6-0.1-0.8-0.2s-0.5-0.3-0.7-0.4c-0.2-0.2-0.3-0.4-0.4-0.7c-0.1-0.3-0.2-0.5-0.2-0.8V278.7z
			 M636.3,280.1c0-0.7-0.1-1.3-0.4-1.9c-0.3-0.6-0.6-1.1-1.1-1.6s-1-0.8-1.6-1.1c-0.6-0.3-1.2-0.4-1.9-0.4c-0.7,0-1.3,0.1-1.9,0.4
			c-0.6,0.3-1.1,0.6-1.6,1.1c-0.4,0.4-0.8,1-1.1,1.6c-0.3,0.6-0.4,1.2-0.4,1.9s0.1,1.3,0.4,1.9c0.3,0.6,0.6,1.1,1.1,1.6
			c0.4,0.4,1,0.8,1.6,1.1c0.6,0.3,1.2,0.4,1.9,0.4c0.7,0,1.3-0.1,1.9-0.4c0.6-0.3,1.1-0.6,1.6-1.1c0.4-0.4,0.8-1,1.1-1.6
			C636.2,281.5,636.3,280.8,636.3,280.1z"/>
	</g>
</g>
<g>
	<g class="st0">
		<path d="M243.9-10.6c2.1,0,4.1,0.3,6,0.8c1.9,0.5,3.7,1.3,5.4,2.3s3.2,2.1,4.5,3.5s2.5,2.9,3.5,4.5s1.7,3.4,2.3,5.4
			c0.5,1.9,0.8,3.9,0.8,6c0,2.4-0.4,4.7-1.1,6.9c-0.7,2.2-1.8,4.3-3.2,6.2v5.1c0,0.4-0.1,0.7-0.4,1s-0.6,0.4-1,0.4
			c-0.3,0-0.6-0.1-0.7-0.2c-0.2-0.1-0.3-0.3-0.4-0.5c-0.1-0.2-0.2-0.4-0.2-0.7c0-0.3,0-0.5,0-0.8c0-0.2,0-0.4,0-0.6
			c0-0.2,0-0.4,0-0.5c-1,1-2.2,1.9-3.4,2.6c-1.2,0.8-2.5,1.4-3.8,1.9c-1.3,0.5-2.7,0.9-4.1,1.2c-1.4,0.3-2.8,0.4-4.3,0.4
			c-2.1,0-4.1-0.3-6-0.8c-1.9-0.5-3.7-1.3-5.4-2.3c-1.7-1-3.2-2.1-4.5-3.5c-1.4-1.4-2.5-2.9-3.5-4.6c-1-1.7-1.7-3.5-2.3-5.4
			c-0.5-1.9-0.8-3.9-0.8-6c0-2.1,0.3-4.1,0.8-6c0.5-1.9,1.3-3.7,2.3-5.4s2.1-3.2,3.5-4.5s2.9-2.5,4.5-3.5s3.4-1.7,5.4-2.3
			C239.9-10.3,241.9-10.6,243.9-10.6z M262.2,19.2c0.5-1.2,0.8-2.4,1.1-3.6c0.2-1.2,0.4-2.5,0.4-3.7c0-1.8-0.2-3.6-0.7-5.2
			c-0.5-1.7-1.1-3.2-2-4.7c-0.9-1.5-1.9-2.8-3.1-4s-2.5-2.2-4-3.1c-1.5-0.9-3-1.5-4.7-2c-1.7-0.5-3.4-0.7-5.2-0.7
			c-1.8,0-3.6,0.2-5.2,0.7c-1.7,0.5-3.2,1.1-4.7,2c-1.5,0.9-2.8,1.9-4,3.1s-2.2,2.5-3.1,4c-0.9,1.5-1.5,3-2,4.7
			c-0.5,1.7-0.7,3.4-0.7,5.2c0,1.8,0.2,3.6,0.7,5.2c0.5,1.7,1.1,3.2,2,4.7c0.9,1.5,1.9,2.8,3.1,4c1.2,1.2,2.5,2.2,4,3.1
			c1.5,0.9,3,1.5,4.7,2c1.7,0.5,3.4,0.7,5.2,0.7c1.5,0,3-0.2,4.4-0.5s2.8-0.8,4.2-1.5c1.3-0.6,2.6-1.4,3.7-2.4
			c1.2-0.9,2.2-2,3.1-3.2V9.9c0,1.1-0.2,2-0.6,3c-0.4,0.9-1,1.7-1.7,2.4c-0.7,0.7-1.5,1.2-2.5,1.6c-0.9,0.4-1.9,0.6-3,0.6
			c-1.1,0-2.1-0.2-3-0.6c-0.9-0.4-1.8-1-2.5-1.7c-0.7-0.7-1.2-1.5-1.7-2.5c-0.4-0.9-0.6-1.9-0.6-3c0-1.1,0.2-2.1,0.6-3
			c0.4-0.9,1-1.8,1.7-2.5c0.7-0.7,1.5-1.2,2.5-1.7c0.9-0.4,1.9-0.6,3-0.6c1,0,1.9,0.2,2.8,0.5c0.9,0.4,1.7,0.9,2.4,1.5
			c0.7,0.6,1.3,1.4,1.7,2.2c0.4,0.9,0.7,1.8,0.8,2.8c0.2,0,0.4,0.1,0.6,0.1c0.2,0,0.3,0.1,0.5,0.2c0.5,0.2,0.9,0.6,1.2,1
			c0.3,0.5,0.5,1,0.5,1.5V19.2z M236.2,3.5c-0.6,0-1.2,0.1-1.8,0.3c-0.6,0.2-1.1,0.5-1.6,0.8c-0.1,0.1-0.3,0.2-0.4,0.2
			c-0.1,0.1-0.3,0.1-0.4,0.1c-0.4,0-0.7-0.1-1-0.4c-0.3-0.3-0.4-0.6-0.4-1c0-0.2,0-0.4,0.1-0.6c0.1-0.2,0.2-0.4,0.4-0.5
			c0.7-0.5,1.5-1,2.4-1.2c0.9-0.3,1.8-0.4,2.7-0.4c0.9,0,1.8,0.1,2.7,0.4c0.9,0.3,1.7,0.7,2.4,1.2c0.2,0.1,0.3,0.3,0.4,0.5
			s0.1,0.4,0.1,0.6c0,0.4-0.1,0.7-0.4,1c-0.3,0.3-0.6,0.4-1,0.4c-0.2,0-0.3,0-0.4-0.1c-0.1-0.1-0.3-0.1-0.4-0.2
			c-0.5-0.4-1-0.6-1.6-0.8C237.4,3.6,236.9,3.5,236.2,3.5z M232.8,17.5c0.5,0,1,0.2,1.2,0.7c1,1.5,2.2,2.7,3.6,3.6
			c1.5,0.9,3.1,1.3,4.9,1.3h4.2c0.4,0,0.7,0.1,1,0.4c0.3,0.3,0.4,0.6,0.4,1s-0.1,0.7-0.4,1c-0.3,0.3-0.6,0.4-1,0.4h-4.2
			c-1.1,0-2.2-0.1-3.3-0.4s-2.1-0.7-3-1.3s-1.8-1.2-2.6-2c-0.8-0.8-1.5-1.7-2-2.6c-0.1-0.2-0.2-0.5-0.2-0.7c0-0.4,0.1-0.7,0.4-1
			C232.1,17.7,232.4,17.5,232.8,17.5z M234.1,8.4c0-0.3,0.1-0.6,0.2-0.8c0.1-0.3,0.3-0.5,0.5-0.7c0.2-0.2,0.4-0.3,0.7-0.4
			c0.3-0.1,0.5-0.2,0.8-0.2c0.3,0,0.6,0.1,0.8,0.2c0.3,0.1,0.5,0.3,0.7,0.4c0.2,0.2,0.3,0.4,0.4,0.7c0.1,0.3,0.2,0.5,0.2,0.8v2.8
			c0,0.3-0.1,0.6-0.2,0.8c-0.1,0.3-0.3,0.5-0.4,0.7c-0.2,0.2-0.4,0.3-0.7,0.5c-0.3,0.1-0.5,0.2-0.8,0.2c-0.3,0-0.6-0.1-0.8-0.2
			c-0.3-0.1-0.5-0.3-0.7-0.4c-0.2-0.2-0.3-0.4-0.4-0.7c-0.1-0.3-0.2-0.5-0.2-0.8V8.4z M256.6,9.8c0-0.7-0.1-1.3-0.4-1.9
			c-0.3-0.6-0.6-1.1-1.1-1.6c-0.4-0.4-1-0.8-1.6-1.1c-0.6-0.3-1.2-0.4-1.9-0.4c-0.7,0-1.3,0.1-1.9,0.4c-0.6,0.3-1.1,0.6-1.6,1.1
			c-0.4,0.4-0.8,1-1.1,1.6c-0.3,0.6-0.4,1.2-0.4,1.9c0,0.7,0.1,1.3,0.4,1.9c0.3,0.6,0.6,1.1,1.1,1.6c0.4,0.4,1,0.8,1.6,1.1
			c0.6,0.3,1.2,0.4,1.9,0.4c0.7,0,1.3-0.1,1.9-0.4c0.6-0.3,1.1-0.6,1.6-1.1c0.4-0.4,0.8-1,1.1-1.6C256.5,11.1,256.6,10.5,256.6,9.8z
			"/>
	</g>
</g>
<g>
	<g class="st0">
		<path d="M229,155.2l12.9,12.9v32.1h-32.1l-12.9-12.9v-32.1H229z M209.5,195.9v-27.1l-9.8-9.8V186L209.5,195.9z M210.9,158h-10.2
			l9.8,9.8h10.2L210.9,158z M208.1,184.6v5.6l-4.2-4.2v-5.6L208.1,184.6z M210.9,197.3H239v-28.1h-11.2v4.2h-5.6v-4.2h-11.2V197.3z
			 M216.5,158l9.8,9.8h11.2l-9.8-9.8H216.5z M229.2,194.5v-1.4h7v1.4H229.2z M232,190.3v-1.4h4.2v1.4H232z"/>
	</g>
</g>
<g>
	<g class="st0">
		<path d="M364.2,287.1l12.9,12.9V332h-32.1l-12.9-12.9v-32.1H364.2z M344.8,327.8v-27.1l-9.8-9.8V318L344.8,327.8z M346.2,289.9
			H336l9.8,9.8h10.2L346.2,289.9z M343.4,316.6v5.6l-4.2-4.2v-5.6L343.4,316.6z M346.2,329.2h28.1v-28.1h-11.2v4.2h-5.6v-4.2h-11.2
			V329.2z M351.8,289.9l9.8,9.8h11.2l-9.8-9.8H351.8z M364.5,326.4V325h7v1.4H364.5z M367.3,322.2v-1.4h4.2v1.4H367.3z"/>
	</g>
</g>
<g>
	<g class="st0">
		<path d="M500.2,102.4l12.9,12.9v32.1h-32.1l-12.9-12.9v-32.1H500.2z M480.8,143.1v-27.1l-9.8-9.8v27.1L480.8,143.1z M482.2,105.2
			H472l9.8,9.8h10.2L482.2,105.2z M479.4,131.9v5.6l-4.2-4.2v-5.6L479.4,131.9z M482.2,144.5h28.1v-28.1h-11.2v4.2h-5.6v-4.2h-11.2
			V144.5z M487.8,105.2l9.8,9.8h11.2l-9.8-9.8H487.8z M500.5,141.7v-1.4h7v1.4H500.5z M503.3,137.5v-1.4h4.2v1.4H503.3z"/>
	</g>
</g>
<g>
	<g class="st0">
		<path d="M384.2,13L397,25.9V58H365l-12.9-12.9V13H384.2z M364.7,53.7V26.7l-9.8-9.8v27.1L364.7,53.7z M366.1,15.8h-10.2l9.8,9.8
			H376L366.1,15.8z M363.3,42.5v5.6l-4.2-4.2v-5.6L363.3,42.5z M366.1,55.1h28.1V27.1H383v4.2h-5.6v-4.2h-11.2V55.1z M371.7,15.8
			l9.8,9.8h11.2l-9.8-9.8H371.7z M384.4,52.4v-1.4h7v1.4H384.4z M387.2,48.1v-1.4h4.2v1.4H387.2z"/>
	</g>
</g>
<g>
	<g class="st0">
		<path d="M175.4,29.6l12.9,12.9v32.1h-32.1l-12.9-12.9V29.6H175.4z M156,70.3V43.2l-9.8-9.8v27.1L156,70.3z M157.4,32.4h-10.2
			l9.8,9.8h10.2L157.4,32.4z M154.6,59v5.6l-4.2-4.2v-5.6L154.6,59z M157.4,71.7h28.1V43.6h-11.2v4.2h-5.6v-4.2h-11.2V71.7z
			 M163,32.4l9.8,9.8h11.2l-9.8-9.8H163z M175.7,68.9v-1.4h7v1.4H175.7z M178.5,64.7v-1.4h4.2v1.4H178.5z"/>
	</g>
</g>
<g>
	<g class="st0">
		<path d="M102.2,91.2l12.9,12.9v32.1H83l-12.9-12.9V91.2H102.2z M82.8,131.9v-27.1L73,95v27.1L82.8,131.9z M84.2,94H74l9.8,9.8H94
			L84.2,94z M81.4,120.7v5.6l-4.2-4.2v-5.6L81.4,120.7z M84.2,133.3h28.1v-28.1H101v4.2h-5.6v-4.2H84.2V133.3z M89.8,94l9.8,9.8
			h11.2L101,94H89.8z M102.4,130.5v-1.4h7v1.4H102.4z M105.3,126.3v-1.4h4.2v1.4H105.3z"/>
	</g>
</g>
<g>
	<g class="st0">
		<path d="M16,278.7l12.9,12.9v32.1H-3.2L-16,310.7v-32.1H16z M-3.4,319.4v-27.1l-9.8-9.8v27.1L-3.4,319.4z M-2,281.5h-10.2l9.8,9.8
			H7.8L-2,281.5z M-4.8,308.2v5.6l-4.2-4.2V304L-4.8,308.2z M-2,320.8h28.1v-28.1H14.8v4.2H9.2v-4.2H-2V320.8z M3.6,281.5l9.8,9.8
			h11.2l-9.8-9.8H3.6z M16.2,318v-1.4h7v1.4H16.2z M19,313.8v-1.4h4.2v1.4H19z"/>
	</g>
</g>
<g>
	<g class="st0">
		<path d="M152.1,277.3l12.9,12.9v32.1H133l-12.9-12.9v-32.1H152.1z M132.7,318v-27.1l-9.8-9.8v27.1L132.7,318z M134.1,280.1h-10.2
			l9.8,9.8h10.2L134.1,280.1z M131.3,306.7v5.6l-4.2-4.2v-5.6L131.3,306.7z M134.1,319.4h28.1v-28.1H151v4.2h-5.6v-4.2h-11.2V319.4z
			 M139.7,280.1l9.8,9.8h11.2l-9.8-9.8H139.7z M152.4,316.6v-1.4h7v1.4H152.4z M155.2,312.4V311h4.2v1.4H155.2z"/>
	</g>
</g>
<g>
	<g class="st0">
		<path d="M548,253.6l12.9,12.9v32.1h-32.1L516,285.7v-32.1H548z M528.6,294.3v-27.1l-9.8-9.8v27.1L528.6,294.3z M530,256.4h-10.2
			l9.8,9.8h10.2L530,256.4z M527.2,283.1v5.6l-4.2-4.2v-5.6L527.2,283.1z M530,295.7h28.1v-28.1h-11.2v4.2h-5.6v-4.2H530V295.7z
			 M535.6,256.4l9.8,9.8h11.2l-9.8-9.8H535.6z M548.3,292.9v-1.4h7v1.4H548.3z M551.1,288.7v-1.4h4.2v1.4H551.1z"/>
	</g>
</g>
<g>
	<g class="st0">
		<path d="M621.2,191.7l12.9,12.9v32.1h-32.1l-12.9-12.9v-32.1H621.2z M601.8,232.4v-27.1l-9.8-9.8v27.1L601.8,232.4z M603.2,194.5
			H593l9.8,9.8h10.2L603.2,194.5z M600.4,221.1v5.6l-4.2-4.2v-5.6L600.4,221.1z M603.2,233.8h28.1v-28.1h-11.2v4.2h-5.6v-4.2h-11.2
			V233.8z M608.8,194.5l9.8,9.8h11.2l-9.8-9.8H608.8z M621.5,231v-1.4h7v1.4H621.5z M624.3,226.8v-1.4h4.2v1.4H624.3z"/>
	</g>
</g>
<g>
	<g class="st0">
		<path d="M610.3-5.7l12.9,12.9v32.1h-32.1l-12.9-12.9V-5.7H610.3z M590.9,35V8l-9.8-9.8v27.1L590.9,35z M592.3-2.8h-10.2l9.8,9.8
			h10.2L592.3-2.8z M589.5,23.8v5.6l-4.2-4.2v-5.6L589.5,23.8z M592.3,36.5h28.1V8.4h-11.2v4.2h-5.6V8.4h-11.2V36.5z M597.9-2.8
			l9.8,9.8H619l-9.8-9.8H597.9z M610.6,33.7v-1.4h7v1.4H610.6z M613.4,29.4V28h4.2v1.4H613.4z"/>
	</g>
</g>
<g>
	<g>
		<path class="st0" d="M251.7,77.4h42.1v42.1h-42.1V77.4z M291,116.7V80.2h-36.5v36.5h2.8V91.5h5.6v25.3h7V98.5h5.6v18.2h7V85.8h5.6
			v30.9H291z"/>
	</g>
</g>
<g>
	<g>
		<path class="st0" d="M202.6,113.6h1.4v22.5h-35.1v-26.7h-8.4v-2.8H159v-4.9l2.1-4.2l11.2-6.4c0,0,0.2,0,0.4,0c0.2,0,0.5,0,0.7,0
			c0.3,0,0.6,0,0.9,0c0.3,0,0.6,0,0.9,0s0.5,0,0.7,0s0.3,0,0.3,0l24.9,6.2v9.2h-2.8v4.9c0.1,0.1,0.2,0.2,0.2,0.3
			c0.1,0.1,0.1,0.2,0.2,0.3h3.8V113.6z M197,115.8c0-0.5-0.1-1-0.2-1.3s-0.3-0.7-0.5-1c-0.2-0.3-0.4-0.5-0.7-0.8
			c-0.2-0.2-0.5-0.5-0.7-0.7c-0.2-0.2-0.4-0.5-0.5-0.8s-0.2-0.6-0.2-1v-0.7h1.4V108h-1.4v-2.8h1.4v-1.4h2.8v-4.2L175.9,94h-2.8
			l-9.8,5.6l-1.4,2.8v1.4h1.4v2.8h2.8v-2.8h5.6v29.5h1.4l2.8-1.4v1.4h1.4v-29.5h14v1.4h1.4v2.8h-1.4v1.4h1.4v0.6
			c0,0.5,0.1,1,0.2,1.3c0.1,0.4,0.3,0.7,0.5,1c0.2,0.3,0.4,0.6,0.7,0.8c0.2,0.2,0.5,0.5,0.7,0.8c0.2,0.3,0.4,0.5,0.5,0.8
			c0.1,0.3,0.2,0.6,0.2,1c0,0.3-0.1,0.6-0.2,0.8c-0.1,0.3-0.3,0.5-0.5,0.7s-0.4,0.3-0.7,0.5c-0.3,0.1-0.5,0.2-0.8,0.2
			c-0.4,0-0.8-0.1-1.2-0.4c-0.4-0.3-0.6-0.6-0.8-1c0-0.1-0.1-0.3-0.1-0.4c0-0.2,0-0.3-0.1-0.5c0-0.1-0.1-0.3-0.2-0.4
			s-0.2-0.1-0.4-0.1c-0.2,0-0.4,0.1-0.5,0.2l-0.1,0c-0.1,0.2-0.1,0.3-0.1,0.4c0,0.5,0.1,0.9,0.3,1.4c0.2,0.4,0.4,0.8,0.8,1.1
			c0.3,0.3,0.7,0.6,1.1,0.8c0.4,0.2,0.9,0.3,1.4,0.3c0.5,0,0.9-0.1,1.2-0.2c0.3-0.2,0.7-0.4,1.1-0.7c0.1-0.1,0.2-0.1,0.3-0.2
			c0.1-0.1,0.2-0.2,0.3-0.2c0.1-0.1,0.2-0.3,0.3-0.4c0.1-0.2,0.2-0.4,0.2-0.6c0.1-0.2,0.1-0.4,0.2-0.6S197,115.9,197,115.8z
			 M164,101h1.4l0.7,1.4h-2.8L164,101z M171.7,99.6h-6l7.4-4.2l-1.4,2.8V99.6z M167.5,102.4l-0.7-1.4h2.8l-0.7,1.4H167.5z
			 M172.4,101l0.7,1.4h-2.8l0.7-1.4H172.4z M175.9,98.2h-2.8l1.4-2.8L175.9,98.2z M175.9,106.6l-2.8-1.4l2.8-1.4V106.6z
			 M173.1,109.4v-2.8l2.8,1.4L173.1,109.4z M175.9,112.2l-2.8-1.4l2.8-1.4V112.2z M173.1,115v-2.8l2.8,1.4L173.1,115z M175.9,117.9
			l-2.8-1.4l2.8-1.4V117.9z M173.1,120.7v-2.8l2.8,1.4L173.1,120.7z M175.9,123.5l-2.8-1.4l2.8-1.4V123.5z M173.1,126.3v-2.8
			l2.8,1.4L173.1,126.3z M175.9,129.1l-2.8-1.4l2.8-1.4V129.1z M173.1,131.9v-2.8l2.8,1.4L173.1,131.9z M174.5,102.4l-0.7-1.4h2.8
			l-0.7,1.4H174.5z M192.7,99.6h-15.4v-1.4l-1.4-2.8L192.7,99.6z M178,101h1.4l0.7,1.4h-2.8L178,101z M181.5,102.4l-0.7-1.4h2.8
			l-0.7,1.4H181.5z M201.2,117.9v-1.4h-1.4V115h-1.4v1.4h0c-0.1,0.5-0.2,1-0.4,1.4h0.5v1.4h-1.5c-0.4,0.4-0.9,0.7-1.5,1
			c-0.5,0.2-1.1,0.4-1.7,0.4h4.6v1.4h-12.6v-1.4h7.4c-0.6,0-1.2-0.2-1.7-0.4c-0.5-0.2-1-0.6-1.4-1h-4.3v-1.4h3.3
			c-0.2-0.4-0.4-0.9-0.4-1.4h-2.9V115h-1.4v1.4h-1.4v1.4h1.4v1.4h-1.4v1.4h1.4v1.4h-1.4v11.2h4.2v-2.8h4.2v2.8h2.8v-2.8h4.2v2.8h2.8
			v-11.2h-1.4v-1.4h1.4v-1.4h-1.4v-1.4H201.2z M185,101h1.4l0.7,1.4h-2.8L185,101z M187.1,127.7v-4.2h4.2v4.2H187.1z M188.5,102.4
			l-0.7-1.4h2.8l-0.7,1.4H188.5z M191.3,102.4l0.7-1.4h1.4l0.7,1.4H191.3z M194.1,127.7v-4.2h4.2v4.2H194.1z M197,102.4h-1.4
			l-0.7-1.4h2.1V102.4z"/>
	</g>
</g>
<g>
	<g>
		<path class="st0" d="M351.7,137.9h1.4v22.5H318v-26.7h-8.4v-2.8h-1.4V126l2.1-4.2l11.2-6.4c0,0,0.2,0,0.4,0c0.2,0,0.5,0,0.7,0
			c0.3,0,0.6,0,0.9,0c0.3,0,0.6,0,0.9,0s0.5,0,0.7,0s0.3,0,0.3,0l24.9,6.2v9.2h-2.8v4.9c0.1,0.1,0.2,0.2,0.2,0.3
			c0.1,0.1,0.1,0.2,0.2,0.3h3.8V137.9z M346.1,140c0-0.5-0.1-1-0.2-1.3s-0.3-0.7-0.5-1c-0.2-0.3-0.4-0.5-0.7-0.8
			c-0.2-0.2-0.5-0.5-0.7-0.7c-0.2-0.2-0.4-0.5-0.5-0.8s-0.2-0.6-0.2-1v-0.7h1.4v-1.4h-1.4v-2.8h1.4v-1.4h2.8v-4.2l-22.5-5.6h-2.8
			l-9.8,5.6l-1.4,2.8v1.4h1.4v2.8h2.8v-2.8h5.6v29.5h1.4l2.8-1.4v1.4h1.4v-29.5h14v1.4h1.4v2.8h-1.4v1.4h1.4v0.6
			c0,0.5,0.1,1,0.2,1.3c0.1,0.4,0.3,0.7,0.5,1c0.2,0.3,0.4,0.6,0.7,0.8c0.2,0.2,0.5,0.5,0.7,0.8c0.2,0.3,0.4,0.5,0.5,0.8
			c0.1,0.3,0.2,0.6,0.2,1c0,0.3-0.1,0.6-0.2,0.8c-0.1,0.3-0.3,0.5-0.5,0.7s-0.4,0.3-0.7,0.5c-0.3,0.1-0.5,0.2-0.8,0.2
			c-0.4,0-0.8-0.1-1.2-0.4c-0.4-0.3-0.6-0.6-0.8-1c0-0.1-0.1-0.3-0.1-0.4c0-0.2,0-0.3-0.1-0.5c0-0.1-0.1-0.3-0.2-0.4
			s-0.2-0.1-0.4-0.1c-0.2,0-0.4,0.1-0.5,0.2l-0.1,0c-0.1,0.2-0.1,0.3-0.1,0.4c0,0.5,0.1,0.9,0.3,1.4c0.2,0.4,0.4,0.8,0.8,1.1
			c0.3,0.3,0.7,0.6,1.1,0.8c0.4,0.2,0.9,0.3,1.4,0.3c0.5,0,0.9-0.1,1.2-0.2c0.3-0.2,0.7-0.4,1.1-0.7c0.1-0.1,0.2-0.1,0.3-0.2
			c0.1-0.1,0.2-0.2,0.3-0.2c0.1-0.1,0.2-0.3,0.3-0.4c0.1-0.2,0.2-0.4,0.2-0.6c0.1-0.2,0.1-0.4,0.2-0.6S346.1,140.2,346.1,140z
			 M313.1,125.3h1.4l0.7,1.4h-2.8L313.1,125.3z M320.8,123.9h-6l7.4-4.2l-1.4,2.8V123.9z M316.6,126.7l-0.7-1.4h2.8l-0.7,1.4H316.6z
			 M321.5,125.3l0.7,1.4h-2.8l0.7-1.4H321.5z M325,122.5h-2.8l1.4-2.8L325,122.5z M325,130.9l-2.8-1.4l2.8-1.4V130.9z M322.3,133.7
			v-2.8l2.8,1.4L322.3,133.7z M325,136.5l-2.8-1.4l2.8-1.4V136.5z M322.3,139.3v-2.8l2.8,1.4L322.3,139.3z M325,142.2l-2.8-1.4
			l2.8-1.4V142.2z M322.3,144.9v-2.8l2.8,1.4L322.3,144.9z M325,147.8l-2.8-1.4l2.8-1.4V147.8z M322.3,150.6v-2.8l2.8,1.4
			L322.3,150.6z M325,153.4l-2.8-1.4l2.8-1.4V153.4z M322.3,156.2v-2.8l2.8,1.4L322.3,156.2z M323.7,126.7l-0.7-1.4h2.8l-0.7,1.4
			H323.7z M341.9,123.9h-15.4v-1.4l-1.4-2.8L341.9,123.9z M327.2,125.3h1.4l0.7,1.4h-2.8L327.2,125.3z M330.7,126.7l-0.7-1.4h2.8
			l-0.7,1.4H330.7z M350.3,142.2v-1.4h-1.4v-1.4h-1.4v1.4h0c-0.1,0.5-0.2,1-0.4,1.4h0.5v1.4H346c-0.4,0.4-0.9,0.7-1.5,1
			c-0.5,0.2-1.1,0.4-1.7,0.4h4.6v1.4h-12.6v-1.4h7.4c-0.6,0-1.2-0.2-1.7-0.4c-0.5-0.2-1-0.6-1.4-1h-4.3v-1.4h3.3
			c-0.2-0.4-0.4-0.9-0.4-1.4h-2.9v-1.4h-1.4v1.4h-1.4v1.4h1.4v1.4h-1.4v1.4h1.4v1.4h-1.4v11.2h4.2v-2.8h4.2v2.8h2.8v-2.8h4.2v2.8
			h2.8v-11.2h-1.4v-1.4h1.4v-1.4h-1.4v-1.4H350.3z M334.2,125.3h1.4l0.7,1.4h-2.8L334.2,125.3z M336.3,152v-4.2h4.2v4.2H336.3z
			 M337.7,126.7l-0.7-1.4h2.8l-0.7,1.4H337.7z M340.5,126.7l0.7-1.4h1.4l0.7,1.4H340.5z M343.3,152v-4.2h4.2v4.2H343.3z
			 M346.1,126.7h-1.4l-0.7-1.4h2.1V126.7z"/>
	</g>
</g>
<g>
	<g>
		<path class="st0" d="M435.4,275.2h1.4v22.5h-35.1v-26.7h-8.4v-2.8h-1.4v-4.9l2.1-4.2l11.2-6.4c0,0,0.2,0,0.4,0c0.2,0,0.5,0,0.7,0
			c0.3,0,0.6,0,0.9,0c0.3,0,0.6,0,0.9,0s0.5,0,0.7,0s0.3,0,0.3,0l24.9,6.2v9.2h-2.8v4.9c0.1,0.1,0.2,0.2,0.2,0.3
			c0.1,0.1,0.1,0.2,0.2,0.3h3.8V275.2z M429.8,277.3c0-0.5-0.1-1-0.2-1.3s-0.3-0.7-0.5-1c-0.2-0.3-0.4-0.5-0.7-0.8
			c-0.2-0.2-0.5-0.5-0.7-0.7c-0.2-0.2-0.4-0.5-0.5-0.8s-0.2-0.6-0.2-1v-0.7h1.4v-1.4H427v-2.8h1.4v-1.4h2.8v-4.2l-22.5-5.6h-2.8
			l-9.8,5.6l-1.4,2.8v1.4h1.4v2.8h2.8v-2.8h5.6v29.5h1.4l2.8-1.4v1.4h1.4v-29.5h14v1.4h1.4v2.8h-1.4v1.4h1.4v0.6
			c0,0.5,0.1,1,0.2,1.3c0.1,0.4,0.3,0.7,0.5,1c0.2,0.3,0.4,0.6,0.7,0.8c0.2,0.2,0.5,0.5,0.7,0.8c0.2,0.3,0.4,0.5,0.5,0.8
			c0.1,0.3,0.2,0.6,0.2,1c0,0.3-0.1,0.6-0.2,0.8c-0.1,0.3-0.3,0.5-0.5,0.7s-0.4,0.3-0.7,0.5c-0.3,0.1-0.5,0.2-0.8,0.2
			c-0.4,0-0.8-0.1-1.2-0.4c-0.4-0.3-0.6-0.6-0.8-1c0-0.1-0.1-0.3-0.1-0.4c0-0.2,0-0.3-0.1-0.5c0-0.1-0.1-0.3-0.2-0.4
			s-0.2-0.1-0.4-0.1c-0.2,0-0.4,0.1-0.5,0.2l-0.1,0c-0.1,0.2-0.1,0.3-0.1,0.4c0,0.5,0.1,0.9,0.3,1.4c0.2,0.4,0.4,0.8,0.8,1.1
			c0.3,0.3,0.7,0.6,1.1,0.8c0.4,0.2,0.9,0.3,1.4,0.3c0.5,0,0.9-0.1,1.2-0.2c0.3-0.2,0.7-0.4,1.1-0.7c0.1-0.1,0.2-0.1,0.3-0.2
			c0.1-0.1,0.2-0.2,0.3-0.2c0.1-0.1,0.2-0.3,0.3-0.4c0.1-0.2,0.2-0.4,0.2-0.6c0.1-0.2,0.1-0.4,0.2-0.6S429.8,277.4,429.8,277.3z
			 M396.8,262.5h1.4l0.7,1.4h-2.8L396.8,262.5z M404.5,261.1h-6l7.4-4.2l-1.4,2.8V261.1z M400.3,263.9l-0.7-1.4h2.8l-0.7,1.4H400.3z
			 M405.2,262.5l0.7,1.4h-2.8l0.7-1.4H405.2z M408.7,259.7h-2.8l1.4-2.8L408.7,259.7z M408.7,268.1l-2.8-1.4l2.8-1.4V268.1z
			 M405.9,270.9v-2.8l2.8,1.4L405.9,270.9z M408.7,273.8l-2.8-1.4l2.8-1.4V273.8z M405.9,276.6v-2.8l2.8,1.4L405.9,276.6z
			 M408.7,279.4l-2.8-1.4l2.8-1.4V279.4z M405.9,282.2v-2.8l2.8,1.4L405.9,282.2z M408.7,285l-2.8-1.4l2.8-1.4V285z M405.9,287.8
			V285l2.8,1.4L405.9,287.8z M408.7,290.6l-2.8-1.4l2.8-1.4V290.6z M405.9,293.4v-2.8l2.8,1.4L405.9,293.4z M407.3,263.9l-0.7-1.4
			h2.8l-0.7,1.4H407.3z M425.6,261.1h-15.4v-1.4l-1.4-2.8L425.6,261.1z M410.8,262.5h1.4l0.7,1.4h-2.8L410.8,262.5z M414.3,263.9
			l-0.7-1.4h2.8l-0.7,1.4H414.3z M434,279.4V278h-1.4v-1.4h-1.4v1.4h0c-0.1,0.5-0.2,1-0.4,1.4h0.5v1.4h-1.5c-0.4,0.4-0.9,0.7-1.5,1
			c-0.5,0.2-1.1,0.4-1.7,0.4h4.6v1.4h-12.6v-1.4h7.4c-0.6,0-1.2-0.2-1.7-0.4c-0.5-0.2-1-0.6-1.4-1h-4.3v-1.4h3.3
			c-0.2-0.4-0.4-0.9-0.4-1.4h-2.9v-1.4h-1.4v1.4h-1.4v1.4h1.4v1.4h-1.4v1.4h1.4v1.4h-1.4v11.2h4.2V292h4.2v2.8h2.8V292h4.2v2.8h2.8
			v-11.2h-1.4v-1.4h1.4v-1.4h-1.4v-1.4H434z M417.8,262.5h1.4l0.7,1.4h-2.8L417.8,262.5z M419.9,289.2V285h4.2v4.2H419.9z
			 M421.3,263.9l-0.7-1.4h2.8l-0.7,1.4H421.3z M424.2,263.9l0.7-1.4h1.4l0.7,1.4H424.2z M427,289.2V285h4.2v4.2H427z M429.8,263.9
			h-1.4l-0.7-1.4h2.1V263.9z"/>
	</g>
</g>
<g>
	<g>
		<path class="st0" d="M564.5,207.6h1.4v22.5h-35.1v-26.7h-8.4v-2.8H521v-4.9l2.1-4.2l11.2-6.4c0,0,0.2,0,0.4,0s0.5,0,0.7,0
			s0.6,0,0.9,0s0.6,0,0.9,0s0.5,0,0.7,0s0.3,0,0.3,0l24.9,6.2v9.2h-2.8v4.9c0.1,0.1,0.2,0.2,0.2,0.3c0.1,0.1,0.1,0.2,0.2,0.3h3.8
			V207.6z M558.9,209.7c0-0.5-0.1-1-0.2-1.3s-0.3-0.7-0.5-1c-0.2-0.3-0.4-0.5-0.7-0.8c-0.2-0.2-0.5-0.5-0.7-0.7
			c-0.2-0.2-0.4-0.5-0.5-0.8s-0.2-0.6-0.2-1v-0.7h1.4V202h-1.4v-2.8h1.4v-1.4h2.8v-4.2l-22.5-5.6H535l-9.8,5.6l-1.4,2.8v1.4h1.4v2.8
			h2.8v-2.8h5.6v29.5h1.4l2.8-1.4v1.4h1.4v-29.5h14v1.4h1.4v2.8h-1.4v1.4h1.4v0.6c0,0.5,0.1,1,0.2,1.3c0.1,0.4,0.3,0.7,0.5,1
			c0.2,0.3,0.4,0.6,0.7,0.8c0.2,0.2,0.5,0.5,0.7,0.8c0.2,0.3,0.4,0.5,0.5,0.8c0.1,0.3,0.2,0.6,0.2,1c0,0.3-0.1,0.6-0.2,0.8
			c-0.1,0.3-0.3,0.5-0.5,0.7s-0.4,0.3-0.7,0.5c-0.3,0.1-0.5,0.2-0.8,0.2c-0.4,0-0.8-0.1-1.2-0.4c-0.4-0.3-0.6-0.6-0.8-1
			c0-0.1-0.1-0.3-0.1-0.4c0-0.2,0-0.3-0.1-0.5c0-0.1-0.1-0.3-0.2-0.4s-0.2-0.1-0.4-0.1c-0.2,0-0.4,0.1-0.5,0.2l-0.1,0
			c-0.1,0.2-0.1,0.3-0.1,0.4c0,0.5,0.1,0.9,0.3,1.4c0.2,0.4,0.4,0.8,0.8,1.1c0.3,0.3,0.7,0.6,1.1,0.8c0.4,0.2,0.9,0.3,1.4,0.3
			c0.5,0,0.9-0.1,1.2-0.2c0.3-0.2,0.7-0.4,1.1-0.7c0.1-0.1,0.2-0.1,0.3-0.2c0.1-0.1,0.2-0.2,0.3-0.2c0.1-0.1,0.2-0.3,0.3-0.4
			c0.1-0.2,0.2-0.4,0.2-0.6c0.1-0.2,0.1-0.4,0.2-0.6S558.9,209.9,558.9,209.7z M525.9,195h1.4l0.7,1.4h-2.8L525.9,195z M533.6,193.6
			h-6l7.4-4.2l-1.4,2.8V193.6z M529.4,196.4l-0.7-1.4h2.8l-0.7,1.4H529.4z M534.3,195l0.7,1.4h-2.8l0.7-1.4H534.3z M537.8,192.2H535
			l1.4-2.8L537.8,192.2z M537.8,200.6l-2.8-1.4l2.8-1.4V200.6z M535,203.4v-2.8l2.8,1.4L535,203.4z M537.8,206.2l-2.8-1.4l2.8-1.4
			V206.2z M535,209v-2.8l2.8,1.4L535,209z M537.8,211.8l-2.8-1.4l2.8-1.4V211.8z M535,214.6v-2.8l2.8,1.4L535,214.6z M537.8,217.4
			L535,216l2.8-1.4V217.4z M535,220.3v-2.8l2.8,1.4L535,220.3z M537.8,223.1l-2.8-1.4l2.8-1.4V223.1z M535,225.9v-2.8l2.8,1.4
			L535,225.9z M536.4,196.4l-0.7-1.4h2.8l-0.7,1.4H536.4z M554.7,193.6h-15.4v-1.4l-1.4-2.8L554.7,193.6z M539.9,195h1.4l0.7,1.4
			h-2.8L539.9,195z M543.5,196.4l-0.7-1.4h2.8l-0.7,1.4H543.5z M563.1,211.8v-1.4h-1.4V209h-1.4v1.4h0c-0.1,0.5-0.2,1-0.4,1.4h0.5
			v1.4h-1.5c-0.4,0.4-0.9,0.7-1.5,1c-0.5,0.2-1.1,0.4-1.7,0.4h4.6v1.4h-12.6v-1.4h7.4c-0.6,0-1.2-0.2-1.7-0.4c-0.5-0.2-1-0.6-1.4-1
			h-4.3v-1.4h3.3c-0.2-0.4-0.4-0.9-0.4-1.4h-2.9V209h-1.4v1.4h-1.4v1.4h1.4v1.4h-1.4v1.4h1.4v1.4h-1.4v11.2h4.2v-2.8h4.2v2.8h2.8
			v-2.8h4.2v2.8h2.8V216h-1.4v-1.4h1.4v-1.4h-1.4v-1.4H563.1z M547,195h1.4l0.7,1.4h-2.8L547,195z M549.1,221.7v-4.2h4.2v4.2H549.1z
			 M550.5,196.4l-0.7-1.4h2.8l-0.7,1.4H550.5z M553.3,196.4l0.7-1.4h1.4l0.7,1.4H553.3z M556.1,221.7v-4.2h4.2v4.2H556.1z
			 M558.9,196.4h-1.4l-0.7-1.4h2.1V196.4z"/>
	</g>
</g>
<g>
	<g>
		<path class="st0" d="M564.5,77.1h1.4v22.5h-35.1V72.9h-8.4v-2.8H521v-4.9l2.1-4.2l11.2-6.4c0,0,0.2,0,0.4,0s0.5,0,0.7,0
			s0.6,0,0.9,0s0.6,0,0.9,0s0.5,0,0.7,0s0.3,0,0.3,0l24.9,6.2v9.2h-2.8v4.9c0.1,0.1,0.2,0.2,0.2,0.3c0.1,0.1,0.1,0.2,0.2,0.3h3.8
			V77.1z M558.9,79.2c0-0.5-0.1-1-0.2-1.3s-0.3-0.7-0.5-1c-0.2-0.3-0.4-0.5-0.7-0.8c-0.2-0.2-0.5-0.5-0.7-0.7
			c-0.2-0.2-0.4-0.5-0.5-0.8s-0.2-0.6-0.2-1v-0.7h1.4v-1.4h-1.4v-2.8h1.4v-1.4h2.8v-4.2l-22.5-5.6H535l-9.8,5.6l-1.4,2.8v1.4h1.4
			v2.8h2.8v-2.8h5.6v29.5h1.4l2.8-1.4v1.4h1.4V67.3h14v1.4h1.4v2.8h-1.4v1.4h1.4v0.6c0,0.5,0.1,1,0.2,1.3c0.1,0.4,0.3,0.7,0.5,1
			c0.2,0.3,0.4,0.6,0.7,0.8c0.2,0.2,0.5,0.5,0.7,0.8c0.2,0.3,0.4,0.5,0.5,0.8c0.1,0.3,0.2,0.6,0.2,1c0,0.3-0.1,0.6-0.2,0.8
			c-0.1,0.3-0.3,0.5-0.5,0.7s-0.4,0.3-0.7,0.5c-0.3,0.1-0.5,0.2-0.8,0.2c-0.4,0-0.8-0.1-1.2-0.4c-0.4-0.3-0.6-0.6-0.8-1
			c0-0.1-0.1-0.3-0.1-0.4c0-0.2,0-0.3-0.1-0.5c0-0.1-0.1-0.3-0.2-0.4s-0.2-0.1-0.4-0.1c-0.2,0-0.4,0.1-0.5,0.2l-0.1,0
			c-0.1,0.2-0.1,0.3-0.1,0.4c0,0.5,0.1,0.9,0.3,1.4c0.2,0.4,0.4,0.8,0.8,1.1c0.3,0.3,0.7,0.6,1.1,0.8c0.4,0.2,0.9,0.3,1.4,0.3
			c0.5,0,0.9-0.1,1.2-0.2c0.3-0.2,0.7-0.4,1.1-0.7c0.1-0.1,0.2-0.1,0.3-0.2c0.1-0.1,0.2-0.2,0.3-0.2c0.1-0.1,0.2-0.3,0.3-0.4
			c0.1-0.2,0.2-0.4,0.2-0.6c0.1-0.2,0.1-0.4,0.2-0.6S558.9,79.4,558.9,79.2z M525.9,64.5h1.4l0.7,1.4h-2.8L525.9,64.5z M533.6,63.1
			h-6l7.4-4.2l-1.4,2.8V63.1z M529.4,65.9l-0.7-1.4h2.8l-0.7,1.4H529.4z M534.3,64.5l0.7,1.4h-2.8l0.7-1.4H534.3z M537.8,61.7H535
			l1.4-2.8L537.8,61.7z M537.8,70.1l-2.8-1.4l2.8-1.4V70.1z M535,72.9v-2.8l2.8,1.4L535,72.9z M537.8,75.7l-2.8-1.4l2.8-1.4V75.7z
			 M535,78.5v-2.8l2.8,1.4L535,78.5z M537.8,81.4L535,80l2.8-1.4V81.4z M535,84.2v-2.8l2.8,1.4L535,84.2z M537.8,87l-2.8-1.4
			l2.8-1.4V87z M535,89.8V87l2.8,1.4L535,89.8z M537.8,92.6l-2.8-1.4l2.8-1.4V92.6z M535,95.4v-2.8l2.8,1.4L535,95.4z M536.4,65.9
			l-0.7-1.4h2.8l-0.7,1.4H536.4z M554.7,63.1h-15.4v-1.4l-1.4-2.8L554.7,63.1z M539.9,64.5h1.4l0.7,1.4h-2.8L539.9,64.5z
			 M543.5,65.9l-0.7-1.4h2.8l-0.7,1.4H543.5z M563.1,81.4V80h-1.4v-1.4h-1.4V80h0c-0.1,0.5-0.2,1-0.4,1.4h0.5v1.4h-1.5
			c-0.4,0.4-0.9,0.7-1.5,1c-0.5,0.2-1.1,0.4-1.7,0.4h4.6v1.4h-12.6v-1.4h7.4c-0.6,0-1.2-0.2-1.7-0.4c-0.5-0.2-1-0.6-1.4-1h-4.3v-1.4
			h3.3c-0.2-0.4-0.4-0.9-0.4-1.4h-2.9v-1.4h-1.4V80h-1.4v1.4h1.4v1.4h-1.4v1.4h1.4v1.4h-1.4v11.2h4.2V94h4.2v2.8h2.8V94h4.2v2.8h2.8
			V85.6h-1.4v-1.4h1.4v-1.4h-1.4v-1.4H563.1z M547,64.5h1.4l0.7,1.4h-2.8L547,64.5z M549.1,91.2V87h4.2v4.2H549.1z M550.5,65.9
			l-0.7-1.4h2.8l-0.7,1.4H550.5z M553.3,65.9l0.7-1.4h1.4l0.7,1.4H553.3z M556.1,91.2V87h4.2v4.2H556.1z M558.9,65.9h-1.4l-0.7-1.4
			h2.1V65.9z"/>
	</g>
</g>
<g>
	<g>
		<path class="st0" d="M52.2,77.1h1.4v22.5H18.5V72.9h-8.4v-2.8H8.7v-4.9l2.1-4.2L22,54.7c0,0,0.2,0,0.4,0c0.2,0,0.5,0,0.7,0
			c0.3,0,0.6,0,0.9,0c0.3,0,0.6,0,0.9,0s0.5,0,0.7,0s0.3,0,0.3,0l24.9,6.2v9.2H48v4.9c0.1,0.1,0.2,0.2,0.2,0.3
			c0.1,0.1,0.1,0.2,0.2,0.3h3.8V77.1z M46.6,79.2c0-0.5-0.1-1-0.2-1.3s-0.3-0.7-0.5-1c-0.2-0.3-0.4-0.5-0.7-0.8
			c-0.2-0.2-0.5-0.5-0.7-0.7c-0.2-0.2-0.4-0.5-0.5-0.8s-0.2-0.6-0.2-1v-0.7h1.4v-1.4h-1.4v-2.8h1.4v-1.4H48v-4.2l-22.5-5.6h-2.8
			l-9.8,5.6l-1.4,2.8v1.4h1.4v2.8h2.8v-2.8h5.6v29.5h1.4l2.8-1.4v1.4H27V67.3h14v1.4h1.4v2.8H41v1.4h1.4v0.6c0,0.5,0.1,1,0.2,1.3
			c0.1,0.4,0.3,0.7,0.5,1c0.2,0.3,0.4,0.6,0.7,0.8c0.2,0.2,0.5,0.5,0.7,0.8c0.2,0.3,0.4,0.5,0.5,0.8c0.1,0.3,0.2,0.6,0.2,1
			c0,0.3-0.1,0.6-0.2,0.8c-0.1,0.3-0.3,0.5-0.5,0.7s-0.4,0.3-0.7,0.5c-0.3,0.1-0.5,0.2-0.8,0.2c-0.4,0-0.8-0.1-1.2-0.4
			c-0.4-0.3-0.6-0.6-0.8-1c0-0.1-0.1-0.3-0.1-0.4c0-0.2,0-0.3-0.1-0.5c0-0.1-0.1-0.3-0.2-0.4s-0.2-0.1-0.4-0.1
			c-0.2,0-0.4,0.1-0.5,0.2l-0.1,0c-0.1,0.2-0.1,0.3-0.1,0.4c0,0.5,0.1,0.9,0.3,1.4c0.2,0.4,0.4,0.8,0.8,1.1c0.3,0.3,0.7,0.6,1.1,0.8
			c0.4,0.2,0.9,0.3,1.4,0.3c0.5,0,0.9-0.1,1.2-0.2c0.3-0.2,0.7-0.4,1.1-0.7c0.1-0.1,0.2-0.1,0.3-0.2c0.1-0.1,0.2-0.2,0.3-0.2
			c0.1-0.1,0.2-0.3,0.3-0.4c0.1-0.2,0.2-0.4,0.2-0.6c0.1-0.2,0.1-0.4,0.2-0.6S46.6,79.4,46.6,79.2z M13.6,64.5H15l0.7,1.4h-2.8
			L13.6,64.5z M21.4,63.1h-6l7.4-4.2l-1.4,2.8V63.1z M17.1,65.9l-0.7-1.4h2.8l-0.7,1.4H17.1z M22.1,64.5l0.7,1.4H20l0.7-1.4H22.1z
			 M25.6,61.7h-2.8l1.4-2.8L25.6,61.7z M25.6,70.1l-2.8-1.4l2.8-1.4V70.1z M22.8,72.9v-2.8l2.8,1.4L22.8,72.9z M25.6,75.7l-2.8-1.4
			l2.8-1.4V75.7z M22.8,78.5v-2.8l2.8,1.4L22.8,78.5z M25.6,81.4L22.8,80l2.8-1.4V81.4z M22.8,84.2v-2.8l2.8,1.4L22.8,84.2z
			 M25.6,87l-2.8-1.4l2.8-1.4V87z M22.8,89.8V87l2.8,1.4L22.8,89.8z M25.6,92.6l-2.8-1.4l2.8-1.4V92.6z M22.8,95.4v-2.8l2.8,1.4
			L22.8,95.4z M24.2,65.9l-0.7-1.4h2.8l-0.7,1.4H24.2z M42.4,63.1H27v-1.4l-1.4-2.8L42.4,63.1z M27.7,64.5h1.4l0.7,1.4H27L27.7,64.5
			z M31.2,65.9l-0.7-1.4h2.8l-0.7,1.4H31.2z M50.8,81.4V80h-1.4v-1.4H48V80h0c-0.1,0.5-0.2,1-0.4,1.4H48v1.4h-1.5
			c-0.4,0.4-0.9,0.7-1.5,1c-0.5,0.2-1.1,0.4-1.7,0.4H48v1.4H35.4v-1.4h7.4c-0.6,0-1.2-0.2-1.7-0.4c-0.5-0.2-1-0.6-1.4-1h-4.3v-1.4
			h3.3c-0.2-0.4-0.4-0.9-0.4-1.4h-2.9v-1.4H34V80h-1.4v1.4H34v1.4h-1.4v1.4H34v1.4h-1.4v11.2h4.2V94H41v2.8h2.8V94H48v2.8h2.8V85.6
			h-1.4v-1.4h1.4v-1.4h-1.4v-1.4H50.8z M34.7,64.5h1.4l0.7,1.4H34L34.7,64.5z M36.8,91.2V87H41v4.2H36.8z M38.2,65.9l-0.7-1.4h2.8
			l-0.7,1.4H38.2z M41,65.9l0.7-1.4h1.4l0.7,1.4H41z M43.8,91.2V87H48v4.2H43.8z M46.6,65.9h-1.4l-0.7-1.4h2.1V65.9z"/>
	</g>
</g>
<g>
	<g>
		<path class="st0" d="M61.7,214.1h1.4v22.5H28v-26.7h-8.4v-2.8h-1.4v-4.9l2.1-4.2l11.2-6.4c0,0,0.2,0,0.4,0c0.2,0,0.5,0,0.7,0
			c0.3,0,0.6,0,0.9,0c0.3,0,0.6,0,0.9,0s0.5,0,0.7,0s0.3,0,0.3,0l24.9,6.2v9.2h-2.8v4.9c0.1,0.1,0.2,0.2,0.2,0.3
			c0.1,0.1,0.1,0.2,0.2,0.3h3.8V214.1z M56.1,216.2c0-0.5-0.1-1-0.2-1.3s-0.3-0.7-0.5-1c-0.2-0.3-0.4-0.5-0.7-0.8
			c-0.2-0.2-0.5-0.5-0.7-0.7c-0.2-0.2-0.4-0.5-0.5-0.8s-0.2-0.6-0.2-1v-0.7h1.4v-1.4h-1.4v-2.8h1.4v-1.4h2.8v-4.2l-22.5-5.6h-2.8
			l-9.8,5.6l-1.4,2.8v1.4h1.4v2.8h2.8v-2.8h5.6v29.5h1.4l2.8-1.4v1.4h1.4v-29.5h14v1.4h1.4v2.8h-1.4v1.4h1.4v0.6
			c0,0.5,0.1,1,0.2,1.3s0.3,0.7,0.5,1c0.2,0.3,0.4,0.6,0.7,0.8c0.2,0.2,0.5,0.5,0.7,0.8c0.2,0.3,0.4,0.5,0.5,0.8s0.2,0.6,0.2,1
			c0,0.3-0.1,0.6-0.2,0.8c-0.1,0.3-0.3,0.5-0.5,0.7s-0.4,0.3-0.7,0.5s-0.5,0.2-0.8,0.2c-0.4,0-0.8-0.1-1.2-0.4
			c-0.4-0.3-0.6-0.6-0.8-1c0-0.1-0.1-0.3-0.1-0.4c0-0.2,0-0.3-0.1-0.5c0-0.1-0.1-0.3-0.2-0.4s-0.2-0.1-0.4-0.1
			c-0.2,0-0.4,0.1-0.5,0.2l-0.1,0c-0.1,0.2-0.1,0.3-0.1,0.4c0,0.5,0.1,0.9,0.3,1.4c0.2,0.4,0.4,0.8,0.8,1.1c0.3,0.3,0.7,0.6,1.1,0.8
			c0.4,0.2,0.9,0.3,1.4,0.3c0.5,0,0.9-0.1,1.2-0.2c0.3-0.2,0.7-0.4,1.1-0.7c0.1-0.1,0.2-0.1,0.3-0.2c0.1-0.1,0.2-0.2,0.3-0.2
			c0.1-0.1,0.2-0.3,0.3-0.4c0.1-0.2,0.2-0.4,0.2-0.6c0.1-0.2,0.1-0.4,0.2-0.6S56.1,216.4,56.1,216.2z M23.1,201.5h1.4l0.7,1.4h-2.8
			L23.1,201.5z M30.9,200.1h-6l7.4-4.2l-1.4,2.8V200.1z M26.6,202.9l-0.7-1.4h2.8l-0.7,1.4H26.6z M31.6,201.5l0.7,1.4h-2.8l0.7-1.4
			H31.6z M35.1,198.7h-2.8l1.4-2.8L35.1,198.7z M35.1,207.1l-2.8-1.4l2.8-1.4V207.1z M32.3,209.9v-2.8l2.8,1.4L32.3,209.9z
			 M35.1,212.7l-2.8-1.4l2.8-1.4V212.7z M32.3,215.5v-2.8l2.8,1.4L32.3,215.5z M35.1,218.3l-2.8-1.4l2.8-1.4V218.3z M32.3,221.1
			v-2.8l2.8,1.4L32.3,221.1z M35.1,223.9l-2.8-1.4l2.8-1.4V223.9z M32.3,226.8v-2.8l2.8,1.4L32.3,226.8z M35.1,229.6l-2.8-1.4
			l2.8-1.4V229.6z M32.3,232.4v-2.8l2.8,1.4L32.3,232.4z M33.7,202.9l-0.7-1.4h2.8l-0.7,1.4H33.7z M51.9,200.1H36.5v-1.4l-1.4-2.8
			L51.9,200.1z M37.2,201.5h1.4l0.7,1.4h-2.8L37.2,201.5z M40.7,202.9l-0.7-1.4h2.8l-0.7,1.4H40.7z M60.3,218.3v-1.4h-1.4v-1.4h-1.4
			v1.4h0c-0.1,0.5-0.2,1-0.4,1.4h0.5v1.4H56c-0.4,0.4-0.9,0.7-1.5,1s-1.1,0.4-1.7,0.4h4.6v1.4H44.9v-1.4h7.4c-0.6,0-1.2-0.2-1.7-0.4
			s-1-0.6-1.4-1h-4.3v-1.4h3.3c-0.2-0.4-0.4-0.9-0.4-1.4h-2.9v-1.4h-1.4v1.4h-1.4v1.4h1.4v1.4h-1.4v1.4h1.4v1.4h-1.4v11.2h4.2V231
			h4.2v2.8h2.8V231h4.2v2.8h2.8v-11.2h-1.4v-1.4h1.4v-1.4h-1.4v-1.4H60.3z M44.2,201.5h1.4l0.7,1.4h-2.8L44.2,201.5z M46.3,228.2
			v-4.2h4.2v4.2H46.3z M47.7,202.9l-0.7-1.4h2.8l-0.7,1.4H47.7z M50.5,202.9l0.7-1.4h1.4l0.7,1.4H50.5z M53.3,228.2v-4.2h4.2v4.2
			H53.3z M56.1,202.9h-1.4l-0.7-1.4h2.1V202.9z"/>
	</g>
</g>
<g>
	<g>
		<path class="st0" d="M310.3,266.7h1.4v22.5h-35.1v-26.7h-8.4v-2.8h-1.4v-4.9l2.1-4.2l11.2-6.4c0,0,0.2,0,0.4,0c0.2,0,0.5,0,0.7,0
			c0.3,0,0.6,0,0.9,0c0.3,0,0.6,0,0.9,0s0.5,0,0.7,0s0.3,0,0.3,0l24.9,6.2v9.2h-2.8v4.9c0.1,0.1,0.2,0.2,0.2,0.3
			c0.1,0.1,0.1,0.2,0.2,0.3h3.8V266.7z M304.7,268.8c0-0.5-0.1-1-0.2-1.3s-0.3-0.7-0.5-1c-0.2-0.3-0.4-0.5-0.7-0.8
			c-0.2-0.2-0.5-0.5-0.7-0.7c-0.2-0.2-0.4-0.5-0.5-0.8s-0.2-0.6-0.2-1v-0.7h1.4v-1.4h-1.4v-2.8h1.4v-1.4h2.8v-4.2l-22.5-5.6h-2.8
			l-9.8,5.6l-1.4,2.8v1.4h1.4v2.8h2.8v-2.8h5.6v29.5h1.4l2.8-1.4v1.4h1.4v-29.5h14v1.4h1.4v2.8h-1.4v1.4h1.4v0.6
			c0,0.5,0.1,1,0.2,1.3s0.3,0.7,0.5,1c0.2,0.3,0.4,0.6,0.7,0.8c0.2,0.2,0.5,0.5,0.7,0.8c0.2,0.3,0.4,0.5,0.5,0.8s0.2,0.6,0.2,1
			c0,0.3-0.1,0.6-0.2,0.8c-0.1,0.3-0.3,0.5-0.5,0.7s-0.4,0.3-0.7,0.5s-0.5,0.2-0.8,0.2c-0.4,0-0.8-0.1-1.2-0.4
			c-0.4-0.3-0.6-0.6-0.8-1c0-0.1-0.1-0.3-0.1-0.4c0-0.2,0-0.3-0.1-0.5c0-0.1-0.1-0.3-0.2-0.4s-0.2-0.1-0.4-0.1
			c-0.2,0-0.4,0.1-0.5,0.2l-0.1,0c-0.1,0.2-0.1,0.3-0.1,0.4c0,0.5,0.1,0.9,0.3,1.4c0.2,0.4,0.4,0.8,0.8,1.1c0.3,0.3,0.7,0.6,1.1,0.8
			c0.4,0.2,0.9,0.3,1.4,0.3c0.5,0,0.9-0.1,1.2-0.2c0.3-0.2,0.7-0.4,1.1-0.7c0.1-0.1,0.2-0.1,0.3-0.2c0.1-0.1,0.2-0.2,0.3-0.2
			c0.1-0.1,0.2-0.3,0.3-0.4c0.1-0.2,0.2-0.4,0.2-0.6c0.1-0.2,0.1-0.4,0.2-0.6S304.7,269,304.7,268.8z M271.7,254.1h1.4l0.7,1.4H271
			L271.7,254.1z M279.5,252.7h-6l7.4-4.2l-1.4,2.8V252.7z M275.2,255.5l-0.7-1.4h2.8l-0.7,1.4H275.2z M280.2,254.1l0.7,1.4h-2.8
			l0.7-1.4H280.2z M283.7,251.3h-2.8l1.4-2.8L283.7,251.3z M283.7,259.7l-2.8-1.4l2.8-1.4V259.7z M280.9,262.5v-2.8l2.8,1.4
			L280.9,262.5z M283.7,265.3l-2.8-1.4l2.8-1.4V265.3z M280.9,268.1v-2.8l2.8,1.4L280.9,268.1z M283.7,271l-2.8-1.4l2.8-1.4V271z
			 M280.9,273.8V271l2.8,1.4L280.9,273.8z M283.7,276.6l-2.8-1.4l2.8-1.4V276.6z M280.9,279.4v-2.8l2.8,1.4L280.9,279.4z
			 M283.7,282.2l-2.8-1.4l2.8-1.4V282.2z M280.9,285v-2.8l2.8,1.4L280.9,285z M282.3,255.5l-0.7-1.4h2.8l-0.7,1.4H282.3z
			 M300.5,252.7h-15.4v-1.4l-1.4-2.8L300.5,252.7z M285.8,254.1h1.4l0.7,1.4h-2.8L285.8,254.1z M289.3,255.5l-0.7-1.4h2.8l-0.7,1.4
			H289.3z M308.9,271v-1.4h-1.4v-1.4h-1.4v1.4h0c-0.1,0.5-0.2,1-0.4,1.4h0.5v1.4h-1.5c-0.4,0.4-0.9,0.7-1.5,1s-1.1,0.4-1.7,0.4h4.6
			v1.4h-12.6v-1.4h7.4c-0.6,0-1.2-0.2-1.7-0.4s-1-0.6-1.4-1h-4.3V271h3.3c-0.2-0.4-0.4-0.9-0.4-1.4h-2.9v-1.4h-1.4v1.4h-1.4v1.4h1.4
			v1.4h-1.4v1.4h1.4v1.4h-1.4v11.2h4.2v-2.8h4.2v2.8h2.8v-2.8h4.2v2.8h2.8v-11.2h-1.4v-1.4h1.4v-1.4h-1.4V271H308.9z M292.8,254.1
			h1.4l0.7,1.4h-2.8L292.8,254.1z M294.9,280.8v-4.2h4.2v4.2H294.9z M296.3,255.5l-0.7-1.4h2.8l-0.7,1.4H296.3z M299.1,255.5
			l0.7-1.4h1.4l0.7,1.4H299.1z M301.9,280.8v-4.2h4.2v4.2H301.9z M304.7,255.5h-1.4l-0.7-1.4h2.1V255.5z"/>
	</g>
</g>
<g>
	<g>
		<path class="st0" d="M26.8-0.7h42.1v42.1H26.8V-0.7z M66.1,38.6V2.1H29.6v36.5h2.8V13.3H38v25.3h7V20.3h5.6v18.2h7V7.7h5.6v30.9
			H66.1z"/>
	</g>
</g>
<g>
	<g>
		<path class="st0" d="M89,177h42.1v42.1H89V177z M128.3,216.3v-36.5H91.8v36.5h2.8v-25.3h5.6v25.3h7v-18.2h5.6v18.2h7v-30.9h5.6
			v30.9H128.3z"/>
	</g>
</g>
<g>
	<g>
		<path class="st0" d="M454.8,288.5h42.1v42.1h-42.1V288.5z M494.1,327.8v-36.5h-36.5v36.5h2.8v-25.3h5.6v25.3h7v-18.2h5.6v18.2h7
			v-30.9h5.6v30.9H494.1z"/>
	</g>
</g>
<g>
	<g>
		<path class="st0" d="M347.8,172.9h42.1V215h-42.1V172.9z M387.1,212.2v-36.5h-36.5v36.5h2.8V187h5.6v25.3h7V194h5.6v18.2h7v-30.9
			h5.6v30.9H387.1z"/>
	</g>
</g>
<g>
	<g>
		<path class="st0" d="M553.2,131.8h42.1v42.1h-42.1V131.8z M592.5,171.1v-36.5H556v36.5h2.8v-25.3h5.6v25.3h7v-18.2h5.6v18.2h7
			v-30.9h5.6v30.9H592.5z"/>
	</g>
</g>
<g>
	<g>
		<path class="st0" d="M531.8,4.2h42.1v42.1h-42.1V4.2z M571.1,43.5V7h-36.5v36.5h2.8V18.2h5.6v25.3h7V25.2h5.6v18.2h7V12.6h5.6
			v30.9H571.1z"/>
	</g>
</g>
<g>
	<g>
		<path class="st0" d="M372.3,96.7h42.1v42.1h-42.1V96.7z M411.6,136V99.5h-36.5V136h2.8v-25.3h5.6V136h7v-18.2h5.6V136h7v-30.9h5.6
			V136H411.6z"/>
	</g>
</g>
<g>
	<g>
		<path class="st0" d="M178.5,228.2h42.1v42.1h-42.1V228.2z M217.8,267.5V231h-36.5v36.5h2.8v-25.3h5.6v25.3h7v-18.2h5.6v18.2h7
			v-30.9h5.6v30.9H217.8z"/>
	</g>
</g>
</svg>
